#N canvas -7 0 934 716 12;
#N canvas 929 0 428 332 data_receiver 1;
#X obj 751 78 oscparse;
#X obj 751 31 netreceive -u -b 8000;
#X obj 750 132 route feature;
#X obj 750 105 list trim;
#N canvas 237 64 927 616 feature_printer 0;
#X obj 78 30 inlet;
#X obj 79 240 spigot;
#X obj 79 263 print mean;
#X obj 79 287 spigot;
#X obj 635 234 spigot;
#X obj 636 284 spigot;
#X obj 80 339 spigot;
#X obj 80 386 spigot;
#X obj 637 336 spigot;
#X obj 637 383 spigot;
#X obj 81 437 spigot;
#X obj 81 484 spigot;
#X obj 638 434 spigot;
#X obj 638 481 spigot;
#X obj 79 310 print std_dev;
#X obj 80 362 print rollmean_64;
#X obj 80 409 print mean_velocity;
#X obj 81 460 print rms_energy;
#X obj 81 507 print entropy;
#X obj 635 258 print peak_intervals;
#X obj 637 307 print acf_lag;
#X obj 637 360 print spectral_centroid;
#X obj 637 406 print pitch_bin;
#X obj 638 457 print hilbert_envelope;
#X obj 638 504 print velocity_pattern;
#X obj 261 210 r print_mean;
#X obj 264 237 r print_std_dev;
#X obj 261 315 r print_rollmean_64;
#X obj 261 343 r print_mean_velocity;
#X obj 259 415 r print_rms_energy;
#X obj 259 442 r print_entropy;
#X obj 457 204 r print_peak_intervals;
#X obj 456 235 r print_acf_lag;
#X obj 453 304 r print_spectral_centroid;
#X obj 453 331 r print_pitch_bin;
#X obj 432 409 r print_hilbert_envelope;
#X obj 432 436 r print_velocity_pattern;
#X obj 628 72 r window_size;
#X obj 739 72 r print_window_size;
#X obj 627 114 spigot;
#X obj 627 138 print window_size;
#X obj 119 148 route mean std_dev rollmean_64 mean_velocity rms_energy entropy peak_intervals acf_lag spectral_centroid pitch_bin hilbert_envelope velocity_pattern, f 67;
#X connect 0 0 41 0;
#X connect 1 0 2 0;
#X connect 3 0 14 0;
#X connect 4 0 19 0;
#X connect 5 0 20 0;
#X connect 6 0 15 0;
#X connect 7 0 16 0;
#X connect 8 0 21 0;
#X connect 9 0 22 0;
#X connect 10 0 17 0;
#X connect 11 0 18 0;
#X connect 12 0 23 0;
#X connect 13 0 24 0;
#X connect 25 0 1 1;
#X connect 26 0 3 1;
#X connect 27 0 6 1;
#X connect 28 0 7 1;
#X connect 29 0 10 1;
#X connect 30 0 11 1;
#X connect 31 0 4 1;
#X connect 32 0 5 1;
#X connect 33 0 8 1;
#X connect 34 0 9 1;
#X connect 35 0 12 1;
#X connect 36 0 13 1;
#X connect 37 0 39 0;
#X connect 38 0 39 1;
#X connect 39 0 40 0;
#X connect 41 0 1 0;
#X connect 41 1 3 0;
#X connect 41 2 6 0;
#X connect 41 3 7 0;
#X connect 41 4 10 0;
#X connect 41 5 11 0;
#X connect 41 6 4 0;
#X connect 41 7 5 0;
#X connect 41 8 8 0;
#X connect 41 9 9 0;
#X connect 41 10 12 0;
#X connect 41 11 13 0;
#X restore 790 173 pd feature_printer;
#X obj 30 161 s print_rollmean_64;
#X obj 29 65 s print_mean;
#X obj 29 113 s print_std_dev;
#X obj 32 209 s print_mean_velocity;
#X obj 30 257 s print_rms_energy;
#X obj 31 309 s print_entropy;
#X obj 32 357 s print_peak_intervals;
#X obj 230 118 s print_acf_lag;
#X obj 232 167 s print_spectral_centroid;
#X obj 232 216 s print_pitch_bin;
#X obj 230 264 s print_hilbert_envelope;
#X obj 28 40 tgl 19 0 empty empty empty 0 -10 0 12 #fcfcfc #000000 #000000 0 1;
#X obj 30 89 tgl 19 0 empty empty empty 0 -10 0 12 #fcfcfc #000000 #000000 0 1;
#X obj 30 138 tgl 19 0 empty empty empty 0 -10 0 12 #fcfcfc #000000 #000000 0 1;
#X obj 32 185 tgl 19 0 empty empty empty 0 -10 0 12 #fcfcfc #000000 #000000 0 1;
#X obj 28 234 tgl 19 0 empty empty empty 0 -10 0 12 #fcfcfc #000000 #000000 0 1;
#X obj 31 285 tgl 19 0 empty empty empty 0 -10 0 12 #fcfcfc #000000 #000000 0 1;
#X obj 31 333 tgl 19 0 empty empty empty 0 -10 0 12 #fcfcfc #000000 #000000 0 1;
#X obj 231 94 tgl 19 0 empty empty empty 0 -10 0 12 #fcfcfc #000000 #000000 0 1;
#X obj 232 143 tgl 19 0 empty empty empty 0 -10 0 12 #fcfcfc #000000 #000000 0 1;
#X obj 232 192 tgl 19 0 empty empty empty 0 -10 0 12 #fcfcfc #000000 #000000 0 1;
#X obj 230 239 tgl 19 0 empty empty empty 0 -10 0 12 #fcfcfc #000000 #000000 0 1;
#X obj 232 288 tgl 19 0 empty empty empty 0 -10 0 12 #fcfcfc #000000 #000000 0 1;
#X text 33 8 Feature Log Output Controls;
#X obj 621 310 s mean;
#X obj 717 312 s std_dev;
#X obj 867 310 s rollmean_64;
#X obj 1009 314 s mean_velocity;
#X obj 1186 309 s rms_energy;
#X obj 1330 311 s entropy;
#X obj 617 370 s peak_intervals;
#X obj 766 369 s acf_lag;
#X obj 885 371 s spectral_centroid;
#X obj 1058 369 s pitch_bin;
#X obj 1207 365 s hilbert_envelope;
#X obj 1376 368 s velocity_pattern;
#X obj 838 64 outlet;
#X obj 768 211 route mean std_dev rollmean_64 mean_velocity rms_energy entropy peak_intervals acf_lag spectral_centroid pitch_bin hilbert_envelope velocity_pattern window_size, f 67;
#X obj 1281 277 s window_size;
#X obj 230 68 s print_velocity_pattern;
#X obj 230 42 tgl 19 0 empty empty empty 0 -10 0 12 #fcfcfc #000000 #000000 0 1;
#X obj 232 314 s print_window_size;
#X connect 0 0 3 0;
#X connect 1 0 0 0;
#X connect 1 0 41 0;
#X connect 2 0 4 0;
#X connect 2 0 42 0;
#X connect 3 0 2 0;
#X connect 16 0 6 0;
#X connect 17 0 7 0;
#X connect 18 0 5 0;
#X connect 19 0 8 0;
#X connect 20 0 9 0;
#X connect 21 0 10 0;
#X connect 22 0 11 0;
#X connect 23 0 12 0;
#X connect 24 0 13 0;
#X connect 25 0 14 0;
#X connect 26 0 15 0;
#X connect 27 0 46 0;
#X connect 42 0 29 0;
#X connect 42 1 30 0;
#X connect 42 2 31 0;
#X connect 42 3 32 0;
#X connect 42 4 33 0;
#X connect 42 5 34 0;
#X connect 42 6 35 0;
#X connect 42 7 36 0;
#X connect 42 8 37 0;
#X connect 42 9 38 0;
#X connect 42 10 39 0;
#X connect 42 11 40 0;
#X connect 42 12 43 0;
#X connect 45 0 44 0;
#X restore 19 16 pd data_receiver;
#X f 17;
#X obj 19 42 bng 19 250 50 0 empty empty empty 0 -10 0 12 #fcfcfc #000000 #000000;
#N canvas 0 40 575 450 tension 0;
#X obj 42 68 r rms_energy;
#X obj 174 68 r entropy;
#X obj 283 73 r spectral_centroid;
#X obj 145 25 inlet;
#X obj 256 27 inlet;
#X obj 447 32 inlet;
#X obj 122 122 *;
#X obj 243 121 *;
#X obj 431 129 *;
#X obj 179 187 +;
#X obj 251 229 +;
#X obj 225 172 +;
#X obj 321 218 +;
#X obj 252 270 /;
#X obj 252 309 outlet;
#X connect 0 0 6 0;
#X connect 1 0 7 0;
#X connect 2 0 8 0;
#X connect 3 0 6 1;
#X connect 3 0 11 0;
#X connect 4 0 7 1;
#X connect 4 0 11 1;
#X connect 5 0 8 1;
#X connect 5 0 12 1;
#X connect 6 0 9 0;
#X connect 7 0 9 1;
#X connect 8 0 10 1;
#X connect 9 0 10 0;
#X connect 10 0 13 0;
#X connect 11 0 12 0;
#X connect 12 0 13 1;
#X connect 13 0 14 0;
#X restore 93 260 pd tension;
#N canvas 576 425 450 300 excitement 0;
#X obj 175 14 inlet;
#X obj 382 15 inlet;
#X obj 13 13 r spectral_centroid;
#X obj 236 13 r mean_velocity;
#X obj 88 63 *;
#X obj 290 65 *;
#X obj 165 110 +;
#X obj 290 109 +;
#X obj 227 161 /;
#X obj 228 204 outlet;
#X connect 0 0 4 1;
#X connect 0 0 7 0;
#X connect 1 0 5 1;
#X connect 1 0 7 1;
#X connect 2 0 4 0;
#X connect 3 0 5 0;
#X connect 4 0 6 0;
#X connect 5 0 6 1;
#X connect 6 0 8 0;
#X connect 7 0 8 1;
#X connect 8 0 9 0;
#X restore 297 260 pd excitement;
#N canvas 577 39 745 362 stability 0;
#X obj 22 13 r std_dev;
#X obj 176 13 r entropy;
#X obj 363 16 r hilb_env;
#X obj 532 18 r mean_velocity;
#X obj 106 14 inlet;
#X obj 268 14 inlet;
#X obj 454 18 inlet;
#X obj 658 17 inlet;
#X obj 65 63 *;
#X obj 241 63 *;
#X obj 434 68 *;
#X obj 625 70 *;
#X obj 161 127 +;
#X obj 292 184 +;
#X obj 412 198 +;
#X obj 269 120 +;
#X obj 498 116 +;
#X obj 380 149 +;
#X obj 377 244 /;
#X obj 377 286 outlet;
#X connect 0 0 8 0;
#X connect 1 0 9 0;
#X connect 2 0 10 0;
#X connect 3 0 11 0;
#X connect 4 0 8 1;
#X connect 4 0 15 0;
#X connect 5 0 9 1;
#X connect 5 0 15 1;
#X connect 6 0 10 1;
#X connect 6 0 16 0;
#X connect 7 0 11 1;
#X connect 7 0 16 1;
#X connect 8 0 12 0;
#X connect 9 0 12 1;
#X connect 10 0 13 1;
#X connect 11 0 14 1;
#X connect 12 0 13 0;
#X connect 13 0 14 0;
#X connect 14 0 18 0;
#X connect 15 0 17 0;
#X connect 16 0 17 1;
#X connect 17 0 18 1;
#X connect 18 0 19 0;
#X restore 476 260 pd stability;
#X obj 86 76 vsl 13 120 0 127 0 0 empty empty RMS 0 -9 0 10 #fcfcfc #000000 #000000 0 1;
#X obj 124 76 vsl 13 120 0 127 0 0 empty empty Entropy 0 -9 0 10 #fcfcfc #000000 #000000 0 1;
#X obj 184 76 vsl 13 120 0 127 0 0 empty empty Centroid 0 -9 0 10 #fcfcfc #000000 #000000 0 1;
#X obj 298 68 vsl 13 120 0 127 0 0 empty empty Centroid 0 -9 0 10 #fcfcfc #000000 #000000 0 1;
#X obj 342 89 vsl 13 120 0 127 0 0 empty empty Mean\ Vel. 0 -9 0 10 #fcfcfc #000000 #000000 0 1;
#X obj 445 47 vsl 13 120 0 127 0 0 empty empty Std\ Dev 0 -9 0 10 #fcfcfc #000000 #000000 0 1;
#X obj 493 62 vsl 13 120 0 127 0 0 empty empty Entropy 0 -9 0 10 #fcfcfc #000000 #000000 0 1;
#X obj 544 81 vsl 13 120 0 127 0 0 empty empty Hilb\ Env. 0 -9 0 10 #fcfcfc #000000 #000000 0 1;
#X obj 590 98 vsl 13 120 0 127 0 0 empty empty Mean\ Vel. 0 -9 0 10 #fcfcfc #000000 #000000 0 1;
#X floatatom 178 218 5 0 0 0 - - - 12;
#X floatatom 125 218 5 0 0 0 - - - 0;
#X floatatom 73 219 5 0 0 0 - - - 0;
#X floatatom 298 225 5 0 0 0 - - - 0;
#X floatatom 363 224 5 0 0 0 - - - 0;
#X floatatom 447 231 5 0 0 0 - - - 0;
#X floatatom 494 232 5 0 0 0 - - - 0;
#X floatatom 543 231 5 0 0 0 - - - 0;
#X floatatom 590 231 5 0 0 0 - - - 0;
#N canvas 6 18 1308 680 pulse 0;
#X obj 586 27 r velocity_pattern;
#X obj 21 84 r peak_intervals;
#X obj 587 67 array set vel_pattern_array;
#X obj 730 121 array get vel_pattern_array;
#X listbox 731 154 32 0 0 0 - - - 0;
#X obj 542 81 bng 19 250 50 0 empty empty empty 0 -10 0 12 #fcfcfc #000000 #000000;
#X obj 19 5 array define vel_pattern_array 16;
#X floatatom 587 287 5 0 0 0 - - - 0;
#X obj 587 263 array sum vel_pattern_array;
#X obj 588 311 / 16;
#X floatatom 486 397 5 0 0 0 - - - 0;
#X obj 18 30 array define peak_intervals_array;
#X obj 18 177 list length;
#X obj 29 127 array set peak_intervals_array;
#X obj 260 198 array max peak_intervals_array;
#X floatatom 260 225 5 0 0 0 - - - 0;
#X obj 487 199 array min peak_intervals_array;
#X floatatom 487 223 5 0 0 0 - - - 0;
#X text 101 363 Peak Density;
#X floatatom 18 207 5 0 0 0 - - - 0;
#X obj 307 268 -;
#X obj 286 304 /;
#X floatatom 314 402 5 0 0 0 - - - 0;
#X text 451 363 Velocity Density;
#X obj 109 203 r window_size;
#X obj 58 240 /;
#X floatatom 121 396 5 0 0 0 - - - 0;
#X text 277 369 Peak Clumpiness;
#X obj 1050 126 r acf_lag;
#X obj 1052 163 variable_length_buffer;
#X obj 1202 12 loadbang;
#X obj 1052 195 array set acf_lag_array;
#X obj 1103 306 array max acf_lag_array;
#X obj 1055 374 /;
#X floatatom 648 396 5 0 0 0 - - - 0;
#X floatatom 1103 330 5 0 0 0 - - - 0;
#X floatatom 1197 38 5 0 0 0 - - - 0;
#X msg 980 68 resize \$1;
#X obj 982 93 array define acf_lag_array;
#X text 627 370 ACF Strength;
#X obj 1054 401 clip 0 1;
#X obj 1054 425 expr 1 - $f1;
#X obj 844 280 array sum acf_lag_array;
#X obj 977 315 /;
#X floatatom 844 304 5 0 0 0 - - - 0;
#X floatatom 977 339 5 0 0 0 - - - 0;
#X obj 1030 270 array size acf_lag_array;
#X floatatom 1030 294 5 0 0 0 - - - 0;
#X obj 205 394 inlet;
#X obj 398 401 inlet;
#X obj 559 396 inlet;
#X obj 725 397 inlet;
#X obj 174 443 *;
#X obj 358 441 *;
#X obj 526 443 *;
#X obj 698 450 *;
#X obj 255 498 +;
#X obj 438 531 +;
#X obj 565 528 +;
#X obj 268 458 +;
#X obj 451 491 +;
#X obj 634 527 +;
#X obj 596 563 /;
#X obj 596 587 outlet;
#X connect 0 0 5 0;
#X connect 0 0 2 0;
#X connect 1 0 12 0;
#X connect 1 0 13 0;
#X connect 3 0 4 0;
#X connect 5 0 3 0;
#X connect 5 0 8 0;
#X connect 5 0 14 0;
#X connect 5 0 16 0;
#X connect 5 0 32 0;
#X connect 5 0 42 0;
#X connect 5 0 46 0;
#X connect 7 0 9 0;
#X connect 8 0 7 0;
#X connect 9 0 10 0;
#X connect 10 0 54 0;
#X connect 12 0 19 0;
#X connect 14 0 15 0;
#X connect 15 0 20 0;
#X connect 15 0 21 1;
#X connect 16 0 17 0;
#X connect 17 0 20 1;
#X connect 19 0 25 0;
#X connect 20 0 21 0;
#X connect 21 0 22 0;
#X connect 22 0 53 0;
#X connect 24 0 25 1;
#X connect 25 0 26 0;
#X connect 26 0 52 0;
#X connect 28 0 29 0;
#X connect 29 0 31 0;
#X connect 30 0 36 0;
#X connect 32 0 35 0;
#X connect 33 0 40 0;
#X connect 34 0 55 0;
#X connect 35 0 33 1;
#X connect 36 0 37 0;
#X connect 36 0 29 1;
#X connect 37 0 38 0;
#X connect 40 0 41 0;
#X connect 41 0 34 0;
#X connect 42 0 44 0;
#X connect 43 0 45 0;
#X connect 44 0 43 0;
#X connect 45 0 33 0;
#X connect 46 0 47 0;
#X connect 47 0 43 1;
#X connect 48 0 52 1;
#X connect 48 0 59 0;
#X connect 49 0 53 1;
#X connect 49 0 59 1;
#X connect 50 0 54 1;
#X connect 50 0 60 1;
#X connect 51 0 55 1;
#X connect 51 0 61 1;
#X connect 52 0 56 0;
#X connect 53 0 56 1;
#X connect 54 0 57 1;
#X connect 55 0 58 1;
#X connect 56 0 57 0;
#X connect 57 0 58 0;
#X connect 58 0 62 0;
#X connect 59 0 60 0;
#X connect 60 0 61 0;
#X connect 61 0 62 1;
#X connect 62 0 63 0;
#X restore 727 265 pd pulse;
#X obj 670 51 vsl 13 120 0 127 0 0 empty empty Peak\ Density 0 -9 0 10 #fcfcfc #000000 #000000 0 1;
#X obj 717 72 vsl 13 120 0 127 0 0 empty empty Peak\ Clumpiness 0 -9 0 10 #fcfcfc #000000 #000000 0 1;
#X obj 766 87 vsl 13 120 0 127 0 0 empty empty Vel.\ Density 0 -9 0 10 #fcfcfc #000000 #000000 0 1;
#X obj 813 102 vsl 13 120 0 127 0 0 empty empty ACF\ Strength 0 -9 0 10 #fcfcfc #000000 #000000 0 1;
#X floatatom 669 235 5 0 0 0 - - - 0;
#X floatatom 716 236 5 0 0 0 - - - 0;
#X floatatom 765 235 5 0 0 0 - - - 0;
#X floatatom 812 235 5 0 0 0 - - - 0;
#X connect 0 0 1 0;
#X connect 5 0 16 0;
#X connect 6 0 15 0;
#X connect 7 0 14 0;
#X connect 8 0 17 0;
#X connect 9 0 18 0;
#X connect 10 0 19 0;
#X connect 11 0 20 0;
#X connect 12 0 21 0;
#X connect 13 0 22 0;
#X connect 14 0 2 2;
#X connect 15 0 2 1;
#X connect 16 0 2 0;
#X connect 17 0 3 0;
#X connect 18 0 3 1;
#X connect 19 0 4 0;
#X connect 20 0 4 1;
#X connect 21 0 4 2;
#X connect 22 0 4 3;
#X connect 24 0 28 0;
#X connect 25 0 29 0;
#X connect 26 0 30 0;
#X connect 27 0 31 0;
#X connect 28 0 23 0;
#X connect 29 0 23 1;
#X connect 30 0 23 2;
#X connect 31 0 23 3;
#X coords 0 0 2 1 0 0 0;
