#N canvas 413 21 946 1070 12;
#N canvas 21 490 284 656 data_receiver 1;
#X obj 524 60 oscparse;
#X obj 524 13 netreceive -u -b 8000;
#X obj 523 114 route feature;
#X obj 523 87 list trim;
#X obj 541 193 route mean std_dev rollmean_64 mean_velocity rms_energy entropy peak_intervals acf_lag spectral_centroid pitch_bin hilbert_envelope velocity_pattern, f 67;
#N canvas 1384 719 927 616 feature_printer 0;
#X obj 78 30 inlet;
#X obj 119 148 route mean std_dev rollmean_64 mean_velocity rms_energy entropy peak_intervals acf_lag spectral_centroid pitch_bin hilbert_envelope velocity_pattern, f 67;
#X obj 79 240 spigot;
#X obj 79 263 print mean;
#X obj 79 287 spigot;
#X obj 635 234 spigot;
#X obj 636 284 spigot;
#X obj 80 339 spigot;
#X obj 80 386 spigot;
#X obj 637 336 spigot;
#X obj 637 383 spigot;
#X obj 81 437 spigot;
#X obj 81 484 spigot;
#X obj 638 434 spigot;
#X obj 638 481 spigot;
#X obj 79 310 print std_dev;
#X obj 80 362 print rollmean_64;
#X obj 80 409 print mean_velocity;
#X obj 81 460 print rms_energy;
#X obj 81 507 print entropy;
#X obj 635 258 print peak_intervals;
#X obj 637 307 print acf_lag;
#X obj 637 360 print spectral_centroid;
#X obj 637 406 print pitch_bin;
#X obj 638 457 print hilbert_envelope;
#X obj 638 504 print velocity_pattern;
#X obj 261 210 r print_mean;
#X obj 264 237 r print_std_dev;
#X obj 261 315 r print_rollmean_64;
#X obj 261 343 r print_mean_velocity;
#X obj 259 415 r print_rms_energy;
#X obj 259 442 r print_entropy;
#X obj 457 204 r print_peak_intervals;
#X obj 456 235 r print_acf_lag;
#X obj 453 304 r print_spectral_centroid;
#X obj 453 331 r print_pitch_bin;
#X obj 432 409 r print_hilbert_envelope;
#X obj 432 436 r print_velocity_pattern;
#X connect 0 0 1 0;
#X connect 1 0 2 0;
#X connect 1 1 4 0;
#X connect 1 2 7 0;
#X connect 1 3 8 0;
#X connect 1 4 11 0;
#X connect 1 5 12 0;
#X connect 1 6 5 0;
#X connect 1 7 6 0;
#X connect 1 8 9 0;
#X connect 1 9 10 0;
#X connect 1 10 13 0;
#X connect 1 11 14 0;
#X connect 2 0 3 0;
#X connect 4 0 15 0;
#X connect 5 0 20 0;
#X connect 6 0 21 0;
#X connect 7 0 16 0;
#X connect 8 0 17 0;
#X connect 9 0 22 0;
#X connect 10 0 23 0;
#X connect 11 0 18 0;
#X connect 12 0 19 0;
#X connect 13 0 24 0;
#X connect 14 0 25 0;
#X connect 26 0 2 1;
#X connect 27 0 4 1;
#X connect 28 0 7 1;
#X connect 29 0 8 1;
#X connect 30 0 11 1;
#X connect 31 0 12 1;
#X connect 32 0 5 1;
#X connect 33 0 6 1;
#X connect 34 0 9 1;
#X connect 35 0 10 1;
#X connect 36 0 13 1;
#X connect 37 0 14 1;
#X restore 563 155 pd feature_printer;
#X obj 30 161 s print_rollmean_64;
#X obj 29 65 s print_mean;
#X obj 29 113 s print_std_dev;
#X obj 32 209 s print_mean_velocity;
#X obj 30 257 s print_rms_energy;
#X obj 31 309 s print_entropy;
#X obj 32 357 s print_peak_intervals;
#X obj 32 405 s print_acf_lag;
#X obj 34 454 s print_spectral_centroid;
#X obj 34 503 s print_pitch_bin;
#X obj 32 551 s print_hilbert_envelope;
#X obj 34 601 s print_velocity_pattern;
#X obj 28 40 tgl 19 0 empty empty empty 0 -10 0 12 #fcfcfc #000000 #000000 0 1;
#X obj 30 89 tgl 19 0 empty empty empty 0 -10 0 12 #fcfcfc #000000 #000000 0 1;
#X obj 30 138 tgl 19 0 empty empty empty 0 -10 0 12 #fcfcfc #000000 #000000 0 1;
#X obj 32 185 tgl 19 0 empty empty empty 0 -10 0 12 #fcfcfc #000000 #000000 0 1;
#X obj 28 234 tgl 19 0 empty empty empty 0 -10 0 12 #fcfcfc #000000 #000000 0 1;
#X obj 31 285 tgl 19 0 empty empty empty 0 -10 0 12 #fcfcfc #000000 #000000 0 1;
#X obj 31 333 tgl 19 0 empty empty empty 0 -10 0 12 #fcfcfc #000000 #000000 0 1;
#X obj 33 381 tgl 19 0 empty empty empty 0 -10 0 12 #fcfcfc #000000 #000000 0 1;
#X obj 34 430 tgl 19 0 empty empty empty 0 -10 0 12 #fcfcfc #000000 #000000 0 1;
#X obj 34 479 tgl 19 0 empty empty empty 0 -10 0 12 #fcfcfc #000000 #000000 0 1;
#X obj 32 526 tgl 19 0 empty empty empty 0 -10 0 12 #fcfcfc #000000 #000000 0 1;
#X obj 34 575 tgl 19 0 empty empty empty 0 -10 0 12 #fcfcfc #000000 #000000 0 1;
#X text 33 8 Feature Log Output Controls;
#X obj 394 292 s mean;
#X obj 490 294 s std_dev;
#X obj 640 292 s rollmean_64;
#X obj 782 296 s mean_velocity;
#X obj 959 291 s rms_energy;
#X obj 1103 293 s entropy;
#X obj 390 352 s peak_intervals;
#X obj 539 351 s acf_lag;
#X obj 658 353 s spectral_centroid;
#X obj 831 351 s pitch_bin;
#X obj 980 347 s hilbert_envelope;
#X obj 1149 350 s velocity_pattern;
#X obj 611 46 outlet;
#X connect 0 0 3 0;
#X connect 1 0 0 0;
#X connect 1 0 43 0;
#X connect 2 0 4 0;
#X connect 2 0 5 0;
#X connect 3 0 2 0;
#X connect 4 0 31 0;
#X connect 4 1 32 0;
#X connect 4 2 33 0;
#X connect 4 3 34 0;
#X connect 4 4 35 0;
#X connect 4 5 36 0;
#X connect 4 6 37 0;
#X connect 4 7 38 0;
#X connect 4 8 39 0;
#X connect 4 9 40 0;
#X connect 4 10 41 0;
#X connect 4 11 42 0;
#X connect 18 0 7 0;
#X connect 19 0 8 0;
#X connect 20 0 6 0;
#X connect 21 0 9 0;
#X connect 22 0 10 0;
#X connect 23 0 11 0;
#X connect 24 0 12 0;
#X connect 25 0 13 0;
#X connect 26 0 14 0;
#X connect 27 0 15 0;
#X connect 28 0 16 0;
#X connect 29 0 17 0;
#X restore 19 16 pd data_receiver;
#X f 17;
#X obj 19 42 bng 19 250 50 0 empty empty empty 0 -10 0 12 #fcfcfc #000000 #000000;
#N canvas 734 465 575 450 tension 0;
#X obj 42 68 r rms_energy;
#X obj 174 68 r entropy;
#X obj 283 73 r spectral_centroid;
#X obj 145 25 inlet;
#X obj 256 27 inlet;
#X obj 447 32 inlet;
#X obj 122 122 *;
#X obj 243 121 *;
#X obj 431 129 *;
#X obj 179 187 +;
#X obj 251 229 +;
#X obj 225 172 +;
#X obj 321 218 +;
#X obj 252 270 /;
#X obj 252 309 outlet;
#X connect 0 0 6 0;
#X connect 1 0 7 0;
#X connect 2 0 8 0;
#X connect 3 0 6 1;
#X connect 3 0 11 0;
#X connect 4 0 7 1;
#X connect 4 0 11 1;
#X connect 5 0 8 1;
#X connect 5 0 12 1;
#X connect 6 0 9 0;
#X connect 7 0 9 1;
#X connect 8 0 10 1;
#X connect 9 0 10 0;
#X connect 10 0 13 0;
#X connect 11 0 12 0;
#X connect 12 0 13 1;
#X connect 13 0 14 0;
#X restore 27 187 pd tension;
#X floatatom 20 143 5 0 0 0 - - - 0;
#X floatatom 75 140 5 0 0 0 - - - 0;
#X floatatom 143 146 5 0 0 0 - - - 0;
#X text 18 117 RMS;
#X text 74 116 Entropy;
#X text 137 119 Spectral Centroid;
#X obj 55 226 print tension;
#N canvas 182 182 450 300 excitement 0;
#X obj 175 14 inlet;
#X obj 382 15 inlet;
#X obj 13 13 r spectral_centroid;
#X obj 236 13 r mean_velocity;
#X obj 88 63 *;
#X obj 290 65 *;
#X obj 165 110 +;
#X obj 290 109 +;
#X obj 227 161 /;
#X obj 228 204 outlet;
#X connect 0 0 4 1;
#X connect 0 0 7 0;
#X connect 1 0 5 1;
#X connect 1 0 7 1;
#X connect 2 0 4 0;
#X connect 3 0 5 0;
#X connect 4 0 6 0;
#X connect 5 0 6 1;
#X connect 6 0 8 0;
#X connect 7 0 8 1;
#X connect 8 0 9 0;
#X restore 316 186 pd excitement;
#X obj 334 225 print excitement;
#X floatatom 316 78 5 0 0 0 - - - 0;
#X floatatom 356 141 4 0 0 0 - - - 0;
#X text 313 53 Spectral Centroid;
#X text 355 115 Mean Velocity;
#N canvas 208 208 745 362 stability 0;
#X obj 22 13 r std_dev;
#X obj 176 13 r entropy;
#X obj 363 16 r hilb_env;
#X obj 532 18 r mean_velocity;
#X obj 106 14 inlet;
#X obj 268 14 inlet;
#X obj 454 18 inlet;
#X obj 658 17 inlet;
#X obj 65 63 *;
#X obj 241 63 *;
#X obj 434 68 *;
#X obj 625 70 *;
#X obj 161 127 +;
#X obj 292 184 +;
#X obj 412 198 +;
#X obj 269 120 +;
#X obj 498 116 +;
#X obj 380 149 +;
#X obj 377 244 /;
#X obj 377 286 outlet;
#X connect 0 0 8 0;
#X connect 1 0 9 0;
#X connect 2 0 10 0;
#X connect 3 0 11 0;
#X connect 4 0 8 1;
#X connect 4 0 15 0;
#X connect 5 0 9 1;
#X connect 5 0 15 1;
#X connect 6 0 10 1;
#X connect 6 0 16 0;
#X connect 7 0 11 1;
#X connect 7 0 16 1;
#X connect 8 0 12 0;
#X connect 9 0 12 1;
#X connect 10 0 13 1;
#X connect 11 0 14 1;
#X connect 12 0 13 0;
#X connect 13 0 14 0;
#X connect 14 0 18 0;
#X connect 15 0 17 0;
#X connect 16 0 17 1;
#X connect 17 0 18 1;
#X connect 18 0 19 0;
#X restore 577 185 pd stability;
#X obj 601 224 print stability;
#X floatatom 584 83 5 0 0 0 - - - 0;
#X floatatom 528 142 5 0 0 0 - - - 0;
#X floatatom 675 149 5 0 0 0 - - - 0;
#X floatatom 659 85 5 0 0 0 - - - 0;
#X text 526 122 Std Dev;
#X text 582 60 Entropy;
#X text 655 60 Hilbert Env;
#X text 671 125 Mean Vel;
#X connect 0 0 1 0;
#X connect 2 0 9 0;
#X connect 3 0 2 0;
#X connect 4 0 2 1;
#X connect 5 0 2 2;
#X connect 10 0 11 0;
#X connect 12 0 10 0;
#X connect 13 0 10 1;
#X connect 16 0 17 0;
#X connect 18 0 16 1;
#X connect 19 0 16 0;
#X connect 20 0 16 3;
#X connect 21 0 16 2;
#X coords 0 0 2 1 0 0 0;
