#N canvas 0 0 934 716 12;
#N canvas 957 0 400 332 data_receiver 1;
#X obj 751 78 oscparse;
#X obj 751 31 netreceive -u -b 8000;
#X obj 750 132 route feature;
#X obj 750 105 list trim;
#N canvas 237 64 927 616 feature_printer 0;
#X obj 78 30 inlet;
#X obj 79 240 spigot;
#X obj 79 263 print mean;
#X obj 79 287 spigot;
#X obj 635 234 spigot;
#X obj 636 284 spigot;
#X obj 80 339 spigot;
#X obj 80 386 spigot;
#X obj 637 336 spigot;
#X obj 637 383 spigot;
#X obj 81 437 spigot;
#X obj 81 484 spigot;
#X obj 638 434 spigot;
#X obj 638 481 spigot;
#X obj 79 310 print std_dev;
#X obj 80 362 print rollmean_64;
#X obj 80 409 print mean_velocity;
#X obj 81 460 print rms_energy;
#X obj 81 507 print entropy;
#X obj 635 258 print peak_intervals;
#X obj 637 307 print acf_lag;
#X obj 637 360 print spectral_centroid;
#X obj 637 406 print pitch_bin;
#X obj 638 457 print hilbert_envelope;
#X obj 638 504 print velocity_pattern;
#X obj 261 210 r print_mean;
#X obj 264 237 r print_std_dev;
#X obj 261 315 r print_rollmean_64;
#X obj 261 343 r print_mean_velocity;
#X obj 259 415 r print_rms_energy;
#X obj 259 442 r print_entropy;
#X obj 457 204 r print_peak_intervals;
#X obj 456 235 r print_acf_lag;
#X obj 453 304 r print_spectral_centroid;
#X obj 453 331 r print_pitch_bin;
#X obj 432 409 r print_hilbert_envelope;
#X obj 432 436 r print_velocity_pattern;
#X obj 628 72 r window_size;
#X obj 739 72 r print_window_size;
#X obj 627 114 spigot;
#X obj 627 138 print window_size;
#X obj 119 148 route mean std_dev rollmean_64 mean_velocity rms_energy entropy peak_intervals acf_lag spectral_centroid pitch_bin hilbert_envelope velocity_pattern, f 67;
#X connect 0 0 41 0;
#X connect 1 0 2 0;
#X connect 3 0 14 0;
#X connect 4 0 19 0;
#X connect 5 0 20 0;
#X connect 6 0 15 0;
#X connect 7 0 16 0;
#X connect 8 0 21 0;
#X connect 9 0 22 0;
#X connect 10 0 17 0;
#X connect 11 0 18 0;
#X connect 12 0 23 0;
#X connect 13 0 24 0;
#X connect 25 0 1 1;
#X connect 26 0 3 1;
#X connect 27 0 6 1;
#X connect 28 0 7 1;
#X connect 29 0 10 1;
#X connect 30 0 11 1;
#X connect 31 0 4 1;
#X connect 32 0 5 1;
#X connect 33 0 8 1;
#X connect 34 0 9 1;
#X connect 35 0 12 1;
#X connect 36 0 13 1;
#X connect 37 0 39 0;
#X connect 38 0 39 1;
#X connect 39 0 40 0;
#X connect 41 0 1 0;
#X connect 41 1 3 0;
#X connect 41 2 6 0;
#X connect 41 3 7 0;
#X connect 41 4 10 0;
#X connect 41 5 11 0;
#X connect 41 6 4 0;
#X connect 41 7 5 0;
#X connect 41 8 8 0;
#X connect 41 9 9 0;
#X connect 41 10 12 0;
#X connect 41 11 13 0;
#X restore 790 173 pd feature_printer;
#X obj 30 161 s print_rollmean_64;
#X obj 29 65 s print_mean;
#X obj 29 113 s print_std_dev;
#X obj 32 209 s print_mean_velocity;
#X obj 30 257 s print_rms_energy;
#X obj 31 309 s print_entropy;
#X obj 32 357 s print_peak_intervals;
#X obj 230 118 s print_acf_lag;
#X obj 232 167 s print_spectral_centroid;
#X obj 232 216 s print_pitch_bin;
#X obj 230 264 s print_hilbert_envelope;
#X obj 28 40 tgl 19 0 empty empty empty 0 -10 0 12 #fcfcfc #000000 #000000 0 1;
#X obj 30 89 tgl 19 0 empty empty empty 0 -10 0 12 #fcfcfc #000000 #000000 0 1;
#X obj 30 138 tgl 19 0 empty empty empty 0 -10 0 12 #fcfcfc #000000 #000000 0 1;
#X obj 32 185 tgl 19 0 empty empty empty 0 -10 0 12 #fcfcfc #000000 #000000 0 1;
#X obj 28 234 tgl 19 0 empty empty empty 0 -10 0 12 #fcfcfc #000000 #000000 0 1;
#X obj 31 285 tgl 19 0 empty empty empty 0 -10 0 12 #fcfcfc #000000 #000000 0 1;
#X obj 31 333 tgl 19 0 empty empty empty 0 -10 0 12 #fcfcfc #000000 #000000 0 1;
#X obj 231 94 tgl 19 0 empty empty empty 0 -10 0 12 #fcfcfc #000000 #000000 0 1;
#X obj 232 143 tgl 19 0 empty empty empty 0 -10 0 12 #fcfcfc #000000 #000000 0 1;
#X obj 232 192 tgl 19 0 empty empty empty 0 -10 0 12 #fcfcfc #000000 #000000 0 1;
#X obj 230 239 tgl 19 0 empty empty empty 0 -10 0 12 #fcfcfc #000000 #000000 0 1;
#X obj 232 288 tgl 19 0 empty empty empty 0 -10 0 12 #fcfcfc #000000 #000000 0 1;
#X text 33 8 Feature Log Output Controls;
#X obj 621 310 s mean;
#X obj 717 312 s std_dev;
#X obj 867 310 s rollmean_64;
#X obj 1009 314 s mean_velocity;
#X obj 1186 309 s rms_energy;
#X obj 1330 311 s entropy;
#X obj 617 370 s peak_intervals;
#X obj 766 369 s acf_lag;
#X obj 885 371 s spectral_centroid;
#X obj 1058 369 s pitch_bin;
#X obj 1207 365 s hilbert_envelope;
#X obj 1376 368 s velocity_pattern;
#X obj 838 64 outlet;
#X obj 768 211 route mean std_dev rollmean_64 mean_velocity rms_energy entropy peak_intervals acf_lag spectral_centroid pitch_bin hilbert_envelope velocity_pattern window_size, f 67;
#X obj 1281 277 s window_size;
#X obj 230 68 s print_velocity_pattern;
#X obj 230 42 tgl 19 0 empty empty empty 0 -10 0 12 #fcfcfc #000000 #000000 0 1;
#X obj 232 314 s print_window_size;
#X connect 0 0 3 0;
#X connect 1 0 0 0;
#X connect 1 0 41 0;
#X connect 2 0 4 0;
#X connect 2 0 42 0;
#X connect 3 0 2 0;
#X connect 16 0 6 0;
#X connect 17 0 7 0;
#X connect 18 0 5 0;
#X connect 19 0 8 0;
#X connect 20 0 9 0;
#X connect 21 0 10 0;
#X connect 22 0 11 0;
#X connect 23 0 12 0;
#X connect 24 0 13 0;
#X connect 25 0 14 0;
#X connect 26 0 15 0;
#X connect 27 0 46 0;
#X connect 42 0 29 0;
#X connect 42 1 30 0;
#X connect 42 2 31 0;
#X connect 42 3 32 0;
#X connect 42 4 33 0;
#X connect 42 5 34 0;
#X connect 42 6 35 0;
#X connect 42 7 36 0;
#X connect 42 8 37 0;
#X connect 42 9 38 0;
#X connect 42 10 39 0;
#X connect 42 11 40 0;
#X connect 42 12 43 0;
#X connect 45 0 44 0;
#X restore 19 16 pd data_receiver;
#X f 17;
#X obj 19 42 bng 19 250 50 0 empty empty empty 0 -10 0 12 #fcfcfc #000000 #000000;
#N canvas 674 86 575 450 tension 0;
#X obj 31 514 r rms_energy;
#X obj 163 514 r entropy;
#X obj 272 519 r spectral_centroid;
#X obj 111 568 *;
#X obj 232 567 *;
#X obj 420 575 *;
#X obj 168 633 +;
#X obj 240 675 +;
#X obj 214 618 +;
#X obj 310 664 +;
#X obj 241 716 /;
#X obj 57 161 vsl 13 120 0 127 0 0 empty empty RMS\ Energy -24 -9 0 10 #fcfcfc #000000 #000000 0 1;
#X floatatom 46 291 5 0 0 0 - - - 0;
#X obj 134 161 vsl 13 120 0 127 0 0 empty empty Entropy -14 -9 0 10 #fcfcfc #000000 #000000 0 1;
#X floatatom 123 291 5 0 0 0 - - - 0;
#X obj 209 160 vsl 13 120 0 127 0 0 empty empty Centroid -18 -9 0 10 #fcfcfc #000000 #000000 0 1;
#X floatatom 198 290 5 0 0 0 - - - 0;
#X text 113 111 Tension;
#X obj 30 325 tgl 19 0 empty empty Print\ to\ console 25 12 0 12 #fcfcfc #000000 #000000 0 1;
#X obj 241 750 sig~;
#X obj 284 796 snapshot~;
#X obj 204 798 outlet~;
#X obj 341 822 spigot;
#X obj 341 846 print Tension;
#X obj 9 8 r tension_rms_energy_coeff;
#X obj 53 42 r tension_entropy_coeff;
#X obj 122 70 r tension_spectral_centroid_coeff;
#X connect 0 0 3 0;
#X connect 1 0 4 0;
#X connect 2 0 5 0;
#X connect 3 0 6 0;
#X connect 4 0 6 1;
#X connect 5 0 7 1;
#X connect 6 0 7 0;
#X connect 7 0 10 0;
#X connect 8 0 9 0;
#X connect 9 0 10 1;
#X connect 10 0 19 0;
#X connect 11 0 12 0;
#X connect 12 0 3 1;
#X connect 12 0 8 0;
#X connect 13 0 14 0;
#X connect 14 0 4 1;
#X connect 14 0 8 1;
#X connect 15 0 16 0;
#X connect 16 0 5 1;
#X connect 16 0 9 1;
#X connect 18 0 22 1;
#X connect 19 0 20 0;
#X connect 19 0 21 0;
#X connect 20 0 22 0;
#X connect 22 0 23 0;
#X connect 24 0 11 0;
#X connect 25 0 13 0;
#X connect 26 0 15 0;
#X coords 0 -1 1 1 250 260 2 10 100;
#X restore 44 120 pd tension;
#N canvas 44 101 700 440 excitement 0;
#X obj 10 408 r spectral_centroid;
#X obj 302 411 r mean_velocity;
#X obj 102 458 *;
#X obj 304 460 *;
#X obj 179 505 +;
#X obj 261 507 +;
#X obj 241 556 /;
#X obj 54 161 vsl 13 120 0 127 0 0 empty empty Centroid -24 -9 0 12 #ffffff #000000 #000000 0 1;
#X obj 131 160 vsl 13 120 0 127 0 0 empty empty Mean\ Vel. -24 -9 0 12 #ffffff #000000 #000000 0 1;
#X floatatom 45 292 5 0 0 0 - - - 0;
#X floatatom 122 291 5 0 0 0 - - - 0;
#X text 66 109 Excitement;
#X obj 22 329 tgl 19 0 empty empty Print\ to\ console 25 12 0 12 #fcfcfc #000000 #000000 0 1;
#X obj 241 587 sig~;
#X obj 284 633 snapshot~;
#X obj 204 635 outlet~;
#X obj 286 685 spigot;
#X obj 286 709 print Excitement;
#X obj 325 574 bng 19 250 50 0 empty empty empty 0 -10 0 12 #fcfcfc #000000 #000000;
#X floatatom 285 660 5 0 0 0 - - - 0;
#X floatatom 270 532 5 0 0 0 - - - 0;
#X floatatom 179 529 5 0 0 0 - - - 0;
#X msg 715 22 64;
#X obj 714 -1 loadbang;
#X msg 725 32 64;
#X obj 724 9 loadbang;
#X obj 22 9 r excitment_spectral_centroid_coeff;
#X obj 23 50 r excitement_mean_velocity_coeff;
#X connect 0 0 2 0;
#X connect 1 0 3 0;
#X connect 1 0 18 0;
#X connect 2 0 4 0;
#X connect 3 0 4 1;
#X connect 4 0 6 0;
#X connect 4 0 21 0;
#X connect 5 0 6 1;
#X connect 5 0 20 0;
#X connect 6 0 13 0;
#X connect 7 0 9 0;
#X connect 8 0 10 0;
#X connect 9 0 2 1;
#X connect 9 0 5 0;
#X connect 10 0 3 1;
#X connect 10 0 5 1;
#X connect 12 0 16 1;
#X connect 13 0 14 0;
#X connect 13 0 15 0;
#X connect 14 0 19 0;
#X connect 16 0 17 0;
#X connect 18 0 14 0;
#X connect 19 0 16 0;
#X connect 23 0 22 0;
#X connect 25 0 24 0;
#X connect 26 0 7 0;
#X connect 27 0 8 0;
#X coords 0 -1 1 1 180 260 2 10 100;
#X restore 200 395 pd excitement;
#N canvas 604 13 745 652 stability 0;
#X obj 18 381 r std_dev;
#X obj 172 381 r entropy;
#X obj 359 384 r hilb_env;
#X obj 528 386 r mean_velocity;
#X obj 61 431 *;
#X obj 237 431 *;
#X obj 430 436 *;
#X obj 621 438 *;
#X obj 157 495 +;
#X obj 288 552 +;
#X obj 408 566 +;
#X obj 265 488 +;
#X obj 494 484 +;
#X obj 376 517 +;
#X obj 373 612 /;
#X obj 245 163 vsl 13 120 0 127 0 0 empty empty Std\ Dev -15 -9 0 10 #fcfcfc #000000 #000000 0 1;
#X floatatom 236 294 5 0 0 0 - - - 0;
#X obj 373 641 sig~;
#X obj 416 687 snapshot~;
#X obj 336 689 outlet~;
#X obj 473 713 spigot;
#X obj 310 162 vsl 13 120 0 127 0 0 empty empty Entropy -15 -9 0 10 #fcfcfc #000000 #000000 0 1;
#X floatatom 301 293 5 0 0 0 - - - 0;
#X obj 374 162 vsl 13 120 0 127 0 0 empty empty Hilbert\ Env -26 -9 0 10 #fcfcfc #000000 #000000 0 1;
#X floatatom 365 293 5 0 0 0 - - - 0;
#X obj 439 161 vsl 13 120 0 127 0 0 empty empty Mean\ Vel -15 -9 0 10 #fcfcfc #000000 #000000 0 1;
#X floatatom 430 292 5 0 0 0 - - - 0;
#X obj 226 327 tgl 19 0 empty empty Print\ to\ console 25 12 0 12 #fcfcfc #000000 #000000 0 1;
#X obj 473 737 print Stability;
#X text 319 113 Stability;
#X obj 37 42 r stability_std_dev_coeff;
#X obj 180 13 r stability_entropy_coeff;
#X obj 405 15 r stability_hilbert_envelope_coeff;
#X obj 487 48 r stability_mean_velocity_coeff;
#X connect 0 0 4 0;
#X connect 1 0 5 0;
#X connect 2 0 6 0;
#X connect 3 0 7 0;
#X connect 4 0 8 0;
#X connect 5 0 8 1;
#X connect 6 0 9 1;
#X connect 7 0 10 1;
#X connect 8 0 9 0;
#X connect 9 0 10 0;
#X connect 10 0 14 0;
#X connect 11 0 13 0;
#X connect 12 0 13 1;
#X connect 13 0 14 1;
#X connect 14 0 17 0;
#X connect 15 0 16 0;
#X connect 16 0 4 1;
#X connect 16 0 11 0;
#X connect 17 0 18 0;
#X connect 17 0 19 0;
#X connect 18 0 20 0;
#X connect 20 0 28 0;
#X connect 21 0 22 0;
#X connect 22 0 5 1;
#X connect 22 0 11 1;
#X connect 23 0 24 0;
#X connect 24 0 6 1;
#X connect 24 0 12 0;
#X connect 25 0 26 0;
#X connect 26 0 12 1;
#X connect 26 0 7 1;
#X connect 27 0 20 1;
#X connect 30 0 15 0;
#X connect 31 0 21 0;
#X connect 32 0 23 0;
#X connect 33 0 25 0;
#X coords 0 -1 1 1 300 260 2 200 100;
#X restore 322 112 pd stability;
#N canvas 6 18 1308 680 pulse 0;
#X obj 994 22 r velocity_pattern;
#X obj 21 84 r peak_intervals;
#X obj 995 62 array set vel_pattern_array;
#X obj 1138 116 array get vel_pattern_array;
#X listbox 1139 149 32 0 0 0 - - - 0;
#X obj 950 76 bng 19 250 50 0 empty empty empty 0 -10 0 12 #fcfcfc #000000 #000000;
#X obj 19 5 array define vel_pattern_array 16;
#X floatatom 995 282 5 0 0 0 - - - 0;
#X obj 995 258 array sum vel_pattern_array;
#X obj 996 306 / 16;
#X floatatom 486 397 5 0 0 0 - - - 0;
#X obj 18 30 array define peak_intervals_array;
#X obj 18 177 list length;
#X obj 29 127 array set peak_intervals_array;
#X obj 697 197 array max peak_intervals_array;
#X floatatom 697 224 5 0 0 0 - - - 0;
#X obj 924 198 array min peak_intervals_array;
#X floatatom 924 222 5 0 0 0 - - - 0;
#X text 101 363 Peak Density;
#X floatatom 18 207 5 0 0 0 - - - 0;
#X obj 744 267 -;
#X obj 723 303 /;
#X floatatom 314 402 5 0 0 0 - - - 0;
#X text 451 363 Velocity Density;
#X obj 109 203 r window_size;
#X obj 58 240 /;
#X floatatom 121 396 5 0 0 0 - - - 0;
#X text 277 369 Peak Clumpiness;
#X obj 1458 121 r acf_lag;
#X obj 1460 158 variable_length_buffer;
#X obj 1610 7 loadbang;
#X obj 1460 190 array set acf_lag_array;
#X obj 1511 301 array max acf_lag_array;
#X obj 1055 374 /;
#X floatatom 648 396 5 0 0 0 - - - 0;
#X floatatom 1511 325 5 0 0 0 - - - 0;
#X msg 1388 63 resize \$1;
#X obj 1390 88 array define acf_lag_array;
#X text 627 370 ACF Strength;
#X obj 1054 401 clip 0 1;
#X obj 1054 425 expr 1 - $f1;
#X obj 1252 275 array sum acf_lag_array;
#X obj 1385 310 /;
#X floatatom 1252 299 5 0 0 0 - - - 0;
#X floatatom 1385 334 5 0 0 0 - - - 0;
#X obj 1438 265 array size acf_lag_array;
#X floatatom 1438 289 5 0 0 0 - - - 0;
#X obj 174 443 *;
#X obj 358 441 *;
#X obj 526 443 *;
#X obj 698 450 *;
#X obj 255 498 +;
#X obj 438 531 +;
#X obj 565 528 +;
#X obj 268 458 +;
#X obj 451 491 +;
#X obj 634 527 +;
#X obj 596 563 /;
#X obj 349 163 vsl 13 120 0 127 0 0 empty empty Peak\ Density -30 -9 0 10 #fcfcfc #000000 #000000 0 1;
#X floatatom 340 294 5 0 0 0 - - - 0;
#X obj 451 163 vsl 13 120 0 127 0 0 empty empty Peak\ Clumpiness -45 -9 0 10 #fcfcfc #000000 #000000 0 1;
#X floatatom 442 294 5 0 0 0 - - - 0;
#X obj 541 163 vsl 13 120 0 127 0 0 empty empty Hilbert\ Env -26 -9 0 10 #fcfcfc #000000 #000000 0 1;
#X floatatom 532 294 5 0 0 0 - - - 0;
#X obj 620 162 vsl 13 120 0 127 0 0 empty empty ACF\ Strength -30 -9 0 10 #fcfcfc #000000 #000000 0 1;
#X floatatom 611 293 5 0 0 0 - - - 0;
#X obj 330 327 tgl 19 0 empty empty Print\ to\ console 25 12 0 12 #fcfcfc #000000 #000000 0 1;
#X text 476 111 Pulse;
#X obj 595 592 sig~;
#X obj 638 638 snapshot~;
#X obj 558 640 outlet~;
#X msg 1609 34 60;
#X obj 638 687 spigot;
#X obj 638 711 print Stability;
#X floatatom 638 662 5 0 0 0 - - - 0;
#X obj 296 18 r pulse_peak_density_coeff;
#X obj 342 55 r pulse_peak_clumpiness_coeff;
#X obj 510 16 r pulse_hilbert_env_coeff;
#X obj 564 53 r pulse_acf_strength_coeff;
#X connect 0 0 5 0;
#X connect 0 0 2 0;
#X connect 1 0 12 0;
#X connect 1 0 13 0;
#X connect 3 0 4 0;
#X connect 5 0 3 0;
#X connect 5 0 8 0;
#X connect 5 0 14 0;
#X connect 5 0 16 0;
#X connect 5 0 32 0;
#X connect 5 0 41 0;
#X connect 5 0 45 0;
#X connect 5 0 69 0;
#X connect 7 0 9 0;
#X connect 8 0 7 0;
#X connect 9 0 10 0;
#X connect 10 0 49 0;
#X connect 12 0 19 0;
#X connect 14 0 15 0;
#X connect 15 0 20 0;
#X connect 15 0 21 1;
#X connect 16 0 17 0;
#X connect 17 0 20 1;
#X connect 19 0 25 0;
#X connect 20 0 21 0;
#X connect 21 0 22 0;
#X connect 22 0 48 0;
#X connect 24 0 25 1;
#X connect 25 0 26 0;
#X connect 26 0 47 0;
#X connect 28 0 29 0;
#X connect 29 0 31 0;
#X connect 30 0 71 0;
#X connect 32 0 35 0;
#X connect 33 0 39 0;
#X connect 34 0 50 0;
#X connect 35 0 33 1;
#X connect 36 0 37 0;
#X connect 39 0 40 0;
#X connect 40 0 34 0;
#X connect 41 0 43 0;
#X connect 42 0 44 0;
#X connect 43 0 42 0;
#X connect 44 0 33 0;
#X connect 45 0 46 0;
#X connect 46 0 42 1;
#X connect 47 0 51 0;
#X connect 48 0 51 1;
#X connect 49 0 52 1;
#X connect 50 0 53 1;
#X connect 51 0 52 0;
#X connect 52 0 53 0;
#X connect 53 0 57 0;
#X connect 54 0 55 0;
#X connect 55 0 56 0;
#X connect 56 0 57 1;
#X connect 57 0 68 0;
#X connect 58 0 59 0;
#X connect 59 0 47 1;
#X connect 59 0 54 0;
#X connect 60 0 61 0;
#X connect 61 0 48 1;
#X connect 61 0 54 1;
#X connect 62 0 63 0;
#X connect 63 0 49 1;
#X connect 63 0 55 1;
#X connect 64 0 65 0;
#X connect 65 0 50 1;
#X connect 65 0 56 1;
#X connect 66 0 72 1;
#X connect 68 0 69 0;
#X connect 68 0 70 0;
#X connect 69 0 74 0;
#X connect 71 0 36 0;
#X connect 71 0 29 1;
#X connect 72 0 73 0;
#X connect 74 0 72 0;
#X connect 75 0 58 0;
#X connect 76 0 60 0;
#X connect 77 0 62 0;
#X connect 78 0 64 0;
#X coords 0 -1 1 1 380 260 2 300 100;
#X restore 431 393 pd pulse;
#N canvas 566 84 617 495 load_config 1;
#X msg 117 71 read patch_config.txt;
#X msg 117 153 0;
#X obj 119 206 print;
#X obj 70 61 bng 19 250 50 0 empty empty empty 0 -10 0 12 #fcfcfc #000000 #000000;
#X obj 118 94 text define config;
#X obj 122 182 text get config;
#X connect 0 0 4 0;
#X connect 1 0 5 0;
#X connect 3 0 1 0;
#X connect 5 0 2 0;
#X restore 668 58 pd load_config;
#X connect 0 0 1 0;
#X coords 0 0 2 1 0 0 0;
