#N canvas 72 95 1967 1237 12;
#N canvas 1210 156 1608 643 data_receiver 0;
#X obj 405 317 oscparse;
#X obj 405 270 netreceive -u -b 8000;
#X obj 404 371 route feature;
#X obj 404 344 list trim;
#X obj 85 511 s mean;
#X obj 181 513 s std_dev;
#X obj 331 511 s rollmean_64;
#X obj 473 515 s mean_velocity;
#X obj 650 510 s rms_energy;
#X obj 794 512 s entropy;
#X obj 81 571 s peak_intervals;
#X obj 230 570 s acf_lag;
#X obj 349 572 s spectral_centroid;
#X obj 522 570 s pitch_bin;
#X obj 671 566 s hilbert_envelope;
#X obj 840 569 s velocity_pattern;
#X obj 232 412 route mean std_dev rollmean_64 mean_velocity rms_energy entropy peak_intervals acf_lag spectral_centroid pitch_bin hilbert_envelope velocity_pattern window_size, f 67;
#X obj 745 478 s window_size;
#N canvas 8 19 846 684 load_config 0;
#X msg 380 63 read patch_config.txt;
#X obj 381 86 text define config;
#X obj 379 29 loadbang;
#X obj 375 158 text sequence config;
#X msg 250 101 line 0;
#X msg 250 176 auto;
#X obj 375 185 route list;
#X obj 266 225 route tension stability excitement pulse;
#X obj 68 296 unpack f f f;
#X obj 18 347 s tension_rms_energy_coeff;
#X obj 20 374 s tension_entropy_coeff;
#X obj 22 405 s tension_spectral_centroid_coeff;
#X obj 164 465 unpack f f f f;
#X obj 170 524 s stability_std_dev_coeff;
#X obj 169 550 s stability_entropy_coeff;
#X obj 169 578 s stability_hilbert_envelope_coeff;
#X obj 172 606 s stability_mean_velocity_coeff;
#X obj 443 564 s excitment_spectral_centroid_coeff;
#X obj 441 595 s excitement_mean_velocity_coeff;
#X obj 462 520 unpack f f;
#X obj 500 287 unpack f f f f;
#X obj 500 334 s pulse_peak_density_coeff;
#X obj 502 358 s pulse_peak_clumpiness_coeff;
#X obj 503 383 s pulse_hilbert_env_coeff;
#X obj 505 408 s pulse_acf_strength_coeff;
#X obj 248 72 delay 1 1 msec;
#X obj 250 151 delay 1 1 msec;
#X obj 250 125 bng 19 250 50 0 empty empty empty 0 -10 0 12 #fcfcfc #000000 #000000;
#X obj 246 40 bng 19 250 50 0 empty empty empty 0 -10 0 12 #fcfcfc #000000 #000000;
#X obj 513 189 outlet;
#X connect 0 0 1 0;
#X connect 2 0 0 0;
#X connect 2 0 25 0;
#X connect 3 0 6 0;
#X connect 3 1 29 0;
#X connect 4 0 3 0;
#X connect 4 0 27 0;
#X connect 5 0 3 0;
#X connect 6 0 7 0;
#X connect 7 0 8 0;
#X connect 7 1 12 0;
#X connect 7 2 19 0;
#X connect 7 3 20 0;
#X connect 8 0 9 0;
#X connect 8 1 10 0;
#X connect 8 2 11 0;
#X connect 12 0 13 0;
#X connect 12 1 14 0;
#X connect 12 2 15 0;
#X connect 12 3 16 0;
#X connect 19 0 17 0;
#X connect 19 1 18 0;
#X connect 20 0 21 0;
#X connect 20 1 22 0;
#X connect 20 2 23 0;
#X connect 20 3 24 0;
#X connect 25 0 4 0;
#X connect 26 0 5 0;
#X connect 27 0 26 0;
#X connect 28 0 25 0;
#X restore 105 104 pd load_config;
#X obj 274 69 tgl 20 0 empty empty Config\ load\ success 28 12 0 12 #fcfcfc #000000 #000000 0 1;
#X obj 275 40 bng 19 250 50 0 empty empty Update\ received 28 12 0 12 #fcfcfc #000000 #000000;
#X text 304 14 Patch Vitals;
#X connect 0 0 3 0;
#X connect 1 0 0 0;
#X connect 1 0 20 0;
#X connect 2 0 16 0;
#X connect 3 0 2 0;
#X connect 16 0 4 0;
#X connect 16 1 5 0;
#X connect 16 2 6 0;
#X connect 16 3 7 0;
#X connect 16 4 8 0;
#X connect 16 5 9 0;
#X connect 16 6 10 0;
#X connect 16 7 11 0;
#X connect 16 8 12 0;
#X connect 16 9 13 0;
#X connect 16 10 14 0;
#X connect 16 11 15 0;
#X connect 16 12 17 0;
#X connect 18 0 19 0;
#X coords 0 -1 1 1 200 108 2 250 5;
#X restore 30 21 pd data_receiver;
#X f 17;
#N canvas 953 23 575 450 tension 0;
#X obj 31 514 r rms_energy;
#X obj 163 514 r entropy;
#X obj 272 519 r spectral_centroid;
#X obj 111 568 *;
#X obj 232 567 *;
#X obj 420 575 *;
#X obj 168 633 +;
#X obj 240 675 +;
#X obj 214 618 +;
#X obj 310 664 +;
#X obj 241 716 /;
#X obj 57 161 vsl 13 120 0 127 0 0 empty empty RMS\ Energy -24 -9 0 10 #fcfcfc #000000 #000000 0 1;
#X floatatom 46 291 5 0 0 0 - - - 0;
#X obj 134 161 vsl 13 120 0 127 0 0 empty empty Entropy -14 -9 0 10 #fcfcfc #000000 #000000 0 1;
#X floatatom 123 291 5 0 0 0 - - - 0;
#X obj 209 160 vsl 13 120 0 127 0 0 empty empty Centroid -18 -9 0 10 #fcfcfc #000000 #000000 0 1;
#X floatatom 198 290 5 0 0 0 - - - 0;
#X text 113 111 Tension;
#X obj 30 325 tgl 19 0 empty empty Print\ to\ console 25 12 0 12 #fcfcfc #000000 #000000 0 1;
#X obj 241 750 sig~;
#X obj 284 796 snapshot~;
#X obj 204 798 outlet~;
#X obj 284 860 spigot;
#X obj 284 884 print Tension;
#X obj 9 8 r tension_rms_energy_coeff;
#X obj 53 42 r tension_entropy_coeff;
#X obj 122 70 r tension_spectral_centroid_coeff;
#X floatatom 284 820 5 0 0 0 - - - 0;
#X obj 372 709 bng 19 250 50 0 empty empty empty 0 -10 0 12 #fcfcfc #000000 #000000;
#X connect 0 0 3 0;
#X connect 1 0 4 0;
#X connect 2 0 5 0;
#X connect 2 0 28 0;
#X connect 3 0 6 0;
#X connect 4 0 6 1;
#X connect 5 0 7 1;
#X connect 6 0 7 0;
#X connect 7 0 10 0;
#X connect 8 0 9 0;
#X connect 9 0 10 1;
#X connect 10 0 19 0;
#X connect 11 0 12 0;
#X connect 12 0 3 1;
#X connect 12 0 8 0;
#X connect 13 0 14 0;
#X connect 14 0 4 1;
#X connect 14 0 8 1;
#X connect 15 0 16 0;
#X connect 16 0 5 1;
#X connect 16 0 9 1;
#X connect 18 0 22 1;
#X connect 19 0 20 0;
#X connect 19 0 21 0;
#X connect 20 0 27 0;
#X connect 22 0 23 0;
#X connect 24 0 11 0;
#X connect 25 0 13 0;
#X connect 26 0 15 0;
#X connect 27 0 22 0;
#X connect 28 0 20 0;
#X coords 0 -1 1 1 250 260 2 10 100;
#X restore 351 41 pd tension;
#N canvas 44 101 700 440 excitement 0;
#X obj 10 408 r spectral_centroid;
#X obj 302 411 r mean_velocity;
#X obj 102 458 *;
#X obj 304 460 *;
#X obj 179 505 +;
#X obj 261 507 +;
#X obj 241 556 /;
#X obj 54 161 vsl 13 120 0 127 0 0 empty empty Centroid -24 -9 0 12 #ffffff #000000 #000000 0 1;
#X obj 131 160 vsl 13 120 0 127 0 0 empty empty Mean\ Vel. -24 -9 0 12 #ffffff #000000 #000000 0 1;
#X floatatom 45 292 5 0 0 0 - - - 0;
#X floatatom 122 291 5 0 0 0 - - - 0;
#X text 66 109 Excitement;
#X obj 22 329 tgl 19 0 empty empty Print\ to\ console 25 12 0 12 #fcfcfc #000000 #000000 0 1;
#X obj 241 587 sig~;
#X obj 284 633 snapshot~;
#X obj 204 635 outlet~;
#X obj 286 685 spigot;
#X obj 286 709 print Excitement;
#X obj 325 574 bng 19 250 50 0 empty empty empty 0 -10 0 12 #fcfcfc #000000 #000000;
#X floatatom 285 660 5 0 0 0 - - - 0;
#X floatatom 270 532 5 0 0 0 - - - 0;
#X floatatom 179 529 5 0 0 0 - - - 0;
#X msg 715 22 64;
#X obj 714 -1 loadbang;
#X msg 725 32 64;
#X obj 724 9 loadbang;
#X obj 22 9 r excitment_spectral_centroid_coeff;
#X obj 23 50 r excitement_mean_velocity_coeff;
#X connect 0 0 2 0;
#X connect 1 0 3 0;
#X connect 1 0 18 0;
#X connect 2 0 4 0;
#X connect 3 0 4 1;
#X connect 4 0 6 0;
#X connect 4 0 21 0;
#X connect 5 0 6 1;
#X connect 5 0 20 0;
#X connect 6 0 13 0;
#X connect 7 0 9 0;
#X connect 8 0 10 0;
#X connect 9 0 2 1;
#X connect 9 0 5 0;
#X connect 10 0 3 1;
#X connect 10 0 5 1;
#X connect 12 0 16 1;
#X connect 13 0 14 0;
#X connect 13 0 15 0;
#X connect 14 0 19 0;
#X connect 16 0 17 0;
#X connect 18 0 14 0;
#X connect 19 0 16 0;
#X connect 23 0 22 0;
#X connect 25 0 24 0;
#X connect 26 0 7 0;
#X connect 27 0 8 0;
#X coords 0 -1 1 1 180 260 2 10 100;
#X restore 956 40 pd excitement;
#N canvas 604 13 745 652 stability 0;
#X obj 18 381 r std_dev;
#X obj 172 381 r entropy;
#X obj 359 384 r hilb_env;
#X obj 528 386 r mean_velocity;
#X obj 61 431 *;
#X obj 237 431 *;
#X obj 430 436 *;
#X obj 621 438 *;
#X obj 157 495 +;
#X obj 288 552 +;
#X obj 408 566 +;
#X obj 265 488 +;
#X obj 494 484 +;
#X obj 376 517 +;
#X obj 373 612 /;
#X obj 245 163 vsl 13 120 0 127 0 0 empty empty Std\ Dev -15 -9 0 10 #fcfcfc #000000 #000000 0 1;
#X floatatom 236 294 5 0 0 0 - - - 0;
#X obj 373 641 sig~;
#X obj 416 687 snapshot~;
#X obj 336 689 outlet~;
#X obj 416 742 spigot;
#X obj 310 162 vsl 13 120 0 127 0 0 empty empty Entropy -15 -9 0 10 #fcfcfc #000000 #000000 0 1;
#X floatatom 301 293 5 0 0 0 - - - 0;
#X obj 374 162 vsl 13 120 0 127 0 0 empty empty Hilbert\ Env -26 -9 0 10 #fcfcfc #000000 #000000 0 1;
#X floatatom 365 293 5 0 0 0 - - - 0;
#X obj 439 161 vsl 13 120 0 127 0 0 empty empty Mean\ Vel -15 -9 0 10 #fcfcfc #000000 #000000 0 1;
#X floatatom 430 292 5 0 0 0 - - - 0;
#X obj 226 327 tgl 19 0 empty empty Print\ to\ console 25 12 0 12 #fcfcfc #000000 #000000 0 1;
#X obj 416 766 print Stability;
#X text 319 113 Stability;
#X obj 37 42 r stability_std_dev_coeff;
#X obj 180 13 r stability_entropy_coeff;
#X obj 405 15 r stability_hilbert_envelope_coeff;
#X obj 487 48 r stability_mean_velocity_coeff;
#X floatatom 416 711 5 0 0 0 - - - 0;
#X obj 529 630 bng 19 250 50 0 empty empty empty 0 -10 0 12 #fcfcfc #000000 #000000;
#X connect 0 0 4 0;
#X connect 1 0 5 0;
#X connect 2 0 6 0;
#X connect 3 0 7 0;
#X connect 3 0 35 0;
#X connect 4 0 8 0;
#X connect 5 0 8 1;
#X connect 6 0 9 1;
#X connect 7 0 10 1;
#X connect 8 0 9 0;
#X connect 9 0 10 0;
#X connect 10 0 14 0;
#X connect 11 0 13 0;
#X connect 12 0 13 1;
#X connect 13 0 14 1;
#X connect 14 0 17 0;
#X connect 15 0 16 0;
#X connect 16 0 4 1;
#X connect 16 0 11 0;
#X connect 17 0 18 0;
#X connect 17 0 19 0;
#X connect 18 0 34 0;
#X connect 20 0 28 0;
#X connect 21 0 22 0;
#X connect 22 0 5 1;
#X connect 22 0 11 1;
#X connect 23 0 24 0;
#X connect 24 0 6 1;
#X connect 24 0 12 0;
#X connect 25 0 26 0;
#X connect 26 0 12 1;
#X connect 26 0 7 1;
#X connect 27 0 20 1;
#X connect 30 0 15 0;
#X connect 31 0 21 0;
#X connect 32 0 23 0;
#X connect 33 0 25 0;
#X connect 34 0 20 0;
#X connect 35 0 18 0;
#X coords 0 -1 1 1 300 260 2 200 100;
#X restore 622 40 pd stability;
#N canvas 6 18 1308 680 pulse 0;
#X obj 994 22 r velocity_pattern;
#X obj 21 84 r peak_intervals;
#X obj 995 62 array set vel_pattern_array;
#X obj 1138 116 array get vel_pattern_array;
#X listbox 1139 149 32 0 0 0 - - - 0;
#X obj 950 76 bng 19 250 50 0 empty empty empty 0 -10 0 12 #fcfcfc #000000 #000000;
#X obj 19 5 array define vel_pattern_array 16;
#X floatatom 995 282 5 0 0 0 - - - 0;
#X obj 995 258 array sum vel_pattern_array;
#X obj 996 306 / 16;
#X floatatom 486 397 5 0 0 0 - - - 0;
#X obj 18 30 array define peak_intervals_array;
#X obj 18 177 list length;
#X obj 29 127 array set peak_intervals_array;
#X obj 697 197 array max peak_intervals_array;
#X floatatom 697 224 5 0 0 0 - - - 0;
#X obj 924 198 array min peak_intervals_array;
#X floatatom 924 222 5 0 0 0 - - - 0;
#X text 101 363 Peak Density;
#X floatatom 18 207 5 0 0 0 - - - 0;
#X obj 744 267 -;
#X obj 723 303 /;
#X floatatom 314 402 5 0 0 0 - - - 0;
#X text 451 363 Velocity Density;
#X obj 109 203 r window_size;
#X obj 58 240 /;
#X floatatom 121 396 5 0 0 0 - - - 0;
#X text 277 369 Peak Clumpiness;
#X obj 1458 121 r acf_lag;
#X obj 1460 158 variable_length_buffer;
#X obj 1610 7 loadbang;
#X obj 1460 190 array set acf_lag_array;
#X obj 1511 301 array max acf_lag_array;
#X obj 1055 374 /;
#X floatatom 648 396 5 0 0 0 - - - 0;
#X floatatom 1511 325 5 0 0 0 - - - 0;
#X msg 1388 63 resize \$1;
#X obj 1390 88 array define acf_lag_array;
#X text 627 370 ACF Strength;
#X obj 1054 401 clip 0 1;
#X obj 1054 425 expr 1 - $f1;
#X obj 1252 275 array sum acf_lag_array;
#X obj 1385 310 /;
#X floatatom 1252 299 5 0 0 0 - - - 0;
#X floatatom 1385 334 5 0 0 0 - - - 0;
#X obj 1438 265 array size acf_lag_array;
#X floatatom 1438 289 5 0 0 0 - - - 0;
#X obj 174 443 *;
#X obj 358 441 *;
#X obj 526 443 *;
#X obj 698 450 *;
#X obj 255 498 +;
#X obj 438 531 +;
#X obj 565 528 +;
#X obj 268 458 +;
#X obj 451 491 +;
#X obj 634 527 +;
#X obj 596 563 /;
#X obj 349 163 vsl 13 120 0 127 0 0 empty empty Peak\ Density -30 -9 0 10 #fcfcfc #000000 #000000 0 1;
#X floatatom 340 294 5 0 0 0 - - - 0;
#X obj 451 163 vsl 13 120 0 127 0 0 empty empty Peak\ Clumpiness -45 -9 0 10 #fcfcfc #000000 #000000 0 1;
#X floatatom 442 294 5 0 0 0 - - - 0;
#X obj 541 163 vsl 13 120 0 127 0 0 empty empty Hilbert\ Env -26 -9 0 10 #fcfcfc #000000 #000000 0 1;
#X floatatom 532 294 5 0 0 0 - - - 0;
#X obj 620 162 vsl 13 120 0 127 0 0 empty empty ACF\ Strength -30 -9 0 10 #fcfcfc #000000 #000000 0 1;
#X floatatom 611 293 5 0 0 0 - - - 0;
#X obj 330 327 tgl 19 0 empty empty Print\ to\ console 25 12 0 12 #fcfcfc #000000 #000000 0 1;
#X text 476 111 Pulse;
#X obj 595 592 sig~;
#X obj 638 638 snapshot~;
#X obj 558 640 outlet~;
#X msg 1609 34 60;
#X obj 638 687 spigot;
#X floatatom 638 662 5 0 0 0 - - - 0;
#X obj 296 18 r pulse_peak_density_coeff;
#X obj 342 55 r pulse_peak_clumpiness_coeff;
#X obj 510 16 r pulse_hilbert_env_coeff;
#X obj 564 53 r pulse_acf_strength_coeff;
#X obj 638 711 print Pulse;
#X connect 0 0 5 0;
#X connect 0 0 2 0;
#X connect 1 0 12 0;
#X connect 1 0 13 0;
#X connect 3 0 4 0;
#X connect 5 0 3 0;
#X connect 5 0 8 0;
#X connect 5 0 14 0;
#X connect 5 0 16 0;
#X connect 5 0 32 0;
#X connect 5 0 41 0;
#X connect 5 0 45 0;
#X connect 5 0 69 0;
#X connect 7 0 9 0;
#X connect 8 0 7 0;
#X connect 9 0 10 0;
#X connect 10 0 49 0;
#X connect 12 0 19 0;
#X connect 14 0 15 0;
#X connect 15 0 20 0;
#X connect 15 0 21 1;
#X connect 16 0 17 0;
#X connect 17 0 20 1;
#X connect 19 0 25 0;
#X connect 20 0 21 0;
#X connect 21 0 22 0;
#X connect 22 0 48 0;
#X connect 24 0 25 1;
#X connect 25 0 26 0;
#X connect 26 0 47 0;
#X connect 28 0 29 0;
#X connect 29 0 31 0;
#X connect 30 0 71 0;
#X connect 32 0 35 0;
#X connect 33 0 39 0;
#X connect 34 0 50 0;
#X connect 35 0 33 1;
#X connect 36 0 37 0;
#X connect 39 0 40 0;
#X connect 40 0 34 0;
#X connect 41 0 43 0;
#X connect 42 0 44 0;
#X connect 43 0 42 0;
#X connect 44 0 33 0;
#X connect 45 0 46 0;
#X connect 46 0 42 1;
#X connect 47 0 51 0;
#X connect 48 0 51 1;
#X connect 49 0 52 1;
#X connect 50 0 53 1;
#X connect 51 0 52 0;
#X connect 52 0 53 0;
#X connect 53 0 57 0;
#X connect 54 0 55 0;
#X connect 55 0 56 0;
#X connect 56 0 57 1;
#X connect 57 0 68 0;
#X connect 58 0 59 0;
#X connect 59 0 47 1;
#X connect 59 0 54 0;
#X connect 60 0 61 0;
#X connect 61 0 48 1;
#X connect 61 0 54 1;
#X connect 62 0 63 0;
#X connect 63 0 49 1;
#X connect 63 0 55 1;
#X connect 64 0 65 0;
#X connect 65 0 50 1;
#X connect 65 0 56 1;
#X connect 66 0 72 1;
#X connect 68 0 69 0;
#X connect 68 0 70 0;
#X connect 69 0 73 0;
#X connect 71 0 36 0;
#X connect 71 0 29 1;
#X connect 72 0 78 0;
#X connect 73 0 72 0;
#X connect 74 0 58 0;
#X connect 75 0 60 0;
#X connect 76 0 62 0;
#X connect 77 0 64 0;
#X coords 0 -1 1 1 380 260 2 300 100;
#X restore 1181 40 pd pulse;
#N canvas 648 359 1305 1008 feature_printer 0;
#X obj 72 741 spigot;
#X obj 72 764 print mean;
#X obj 258 750 spigot;
#X obj 574 896 spigot;
#X obj 599 1069 spigot;
#X obj 70 892 spigot;
#X obj 299 897 spigot;
#X obj 344 1054 spigot;
#X obj 829 772 spigot;
#X obj 101 1038 spigot;
#X obj 573 758 spigot;
#X obj 876 899 spigot;
#X obj 824 1022 spigot;
#X obj 258 775 print std_dev;
#X obj 70 915 print rollmean_64;
#X obj 299 920 print mean_velocity;
#X obj 101 1061 print rms_energy;
#X obj 573 781 print entropy;
#X obj 574 920 print peak_intervals;
#X obj 599 1099 print acf_lag;
#X obj 344 1078 print spectral_centroid;
#X obj 829 795 print pitch_bin;
#X obj 876 922 print hilbert_envelope;
#X obj 824 1045 print velocity_pattern;
#X obj 113 712 r print_mean;
#X obj 297 721 r print_std_dev;
#X obj 109 860 r print_rollmean_64;
#X obj 337 862 r print_mean_velocity;
#X obj 140 1002 r print_rms_energy;
#X obj 612 726 r print_entropy;
#X obj 614 861 r print_peak_intervals;
#X obj 641 1035 r print_acf_lag;
#X obj 383 1020 r print_spectral_centroid;
#X obj 870 738 r print_pitch_bin;
#X obj 914 862 r print_hilbert_envelope;
#X obj 875 990 r print_velocity_pattern;
#X obj 1126 761 r window_size;
#X obj 1237 761 r print_window_size;
#X obj 1125 803 spigot;
#X obj 1125 827 print window_size;
#X obj 871 832 r hilbert_envelope;
#X obj 825 707 r pitch_bin;
#X obj 340 993 r spectral_centroid;
#X obj 593 1010 r acf_lag;
#X obj 575 838 r peak_intervals;
#X obj 578 699 r entropy;
#X obj 100 978 r rms_energy;
#X obj 297 839 r mean_velocity;
#X obj 67 833 r rollmean_64;
#X obj 70 686 r mean;
#X obj 34 573 s print_pitch_bin;
#X obj 167 573 s print_rms_energy;
#X obj 311 573 s print_spectral_centroid;
#X obj 511 572 s print_acf_lag;
#X obj 642 569 s print_velocity_pattern;
#X obj 841 570 s print_window_size;
#X obj 998 569 s print_hilbert_envelope;
#X obj 32 601 s print_rollmean_64;
#X obj 181 599 s print_mean_velocity;
#X obj 343 600 s print_std_dev;
#X obj 465 600 s print_mean;
#X obj 562 598 s print_peak_intervals;
#X obj 729 597 s print_entropy;
#X obj 427 81 tgl 19 0 empty empty Mean 0 -10 0 10 #fcfcfc #000000 #000000 0 1;
#X text 483 21 Print Features;
#X obj 549 362 tgl 19 0 empty empty All 0 -10 0 10 #fcfcfc #000000 #000000 0 1;
#X obj 427 121 tgl 19 0 empty empty Std\ Dev 0 -10 0 10 #fcfcfc #000000 #000000 0 1;
#X obj 427 162 tgl 19 0 empty empty Rolling\ Mean 0 -10 0 10 #fcfcfc #000000 #000000 0 1;
#X obj 427 202 tgl 19 0 empty empty Mean\ Velocity 0 -10 0 10 #fcfcfc #000000 #000000 0 1;
#X obj 428 242 tgl 19 0 empty empty Entropy 0 -10 0 10 #fcfcfc #000000 #000000 0 1;
#X obj 428 282 tgl 19 0 empty empty Pitch\ Bin 0 -10 0 10 #fcfcfc #000000 #000000 0 1;
#X obj 428 323 tgl 19 0 empty empty Peak\ Intervals 0 -10 0 10 #fcfcfc #000000 #000000 0 1;
#X obj 428 363 tgl 19 0 empty empty Hilbert\ Envelope 0 -10 0 10 #fcfcfc #000000 #000000 0 1;
#X obj 548 78 tgl 19 0 empty empty RMS\ Energy 0 -10 0 10 #fcfcfc #000000 #000000 0 1;
#X obj 548 118 tgl 19 0 empty empty Velocity\ Pattern 0 -10 0 10 #fcfcfc #000000 #000000 0 1;
#X obj 548 159 tgl 19 0 empty empty Spectral\ Centroid 0 -10 0 10 #fcfcfc #000000 #000000 0 1;
#X obj 548 199 tgl 19 0 empty empty ACF\ Lag 0 -10 0 10 #fcfcfc #000000 #000000 0 1;
#X obj 549 239 tgl 19 0 empty empty Window\ Size 0 -10 0 10 #fcfcfc #000000 #000000 0 1;
#X obj 822 962 r velocity_pattern;
#X obj 255 693 r std_dev;
#X connect 0 0 1 0;
#X connect 2 0 13 0;
#X connect 3 0 18 0;
#X connect 4 0 19 0;
#X connect 5 0 14 0;
#X connect 6 0 15 0;
#X connect 7 0 20 0;
#X connect 8 0 21 0;
#X connect 9 0 16 0;
#X connect 10 0 17 0;
#X connect 11 0 22 0;
#X connect 12 0 23 0;
#X connect 24 0 0 1;
#X connect 25 0 2 1;
#X connect 26 0 5 1;
#X connect 27 0 6 1;
#X connect 28 0 9 1;
#X connect 29 0 10 1;
#X connect 30 0 3 1;
#X connect 31 0 4 1;
#X connect 32 0 7 1;
#X connect 33 0 8 1;
#X connect 34 0 11 1;
#X connect 35 0 12 1;
#X connect 36 0 38 0;
#X connect 37 0 38 1;
#X connect 38 0 39 0;
#X connect 40 0 11 0;
#X connect 41 0 8 0;
#X connect 42 0 7 0;
#X connect 43 0 4 0;
#X connect 44 0 3 0;
#X connect 45 0 10 0;
#X connect 46 0 9 0;
#X connect 47 0 6 0;
#X connect 48 0 5 0;
#X connect 49 0 0 0;
#X connect 63 0 60 0;
#X connect 65 0 72 0;
#X connect 65 0 71 0;
#X connect 65 0 70 0;
#X connect 65 0 69 0;
#X connect 65 0 68 0;
#X connect 65 0 67 0;
#X connect 65 0 66 0;
#X connect 65 0 63 0;
#X connect 65 0 77 0;
#X connect 65 0 76 0;
#X connect 65 0 75 0;
#X connect 65 0 74 0;
#X connect 65 0 73 0;
#X connect 66 0 59 0;
#X connect 67 0 57 0;
#X connect 68 0 58 0;
#X connect 69 0 62 0;
#X connect 70 0 50 0;
#X connect 71 0 61 0;
#X connect 72 0 56 0;
#X connect 73 0 51 0;
#X connect 74 0 54 0;
#X connect 75 0 52 0;
#X connect 76 0 53 0;
#X connect 77 0 55 0;
#X connect 78 0 12 0;
#X connect 79 0 2 0;
#X coords 0 -1 1 1 270 400 2 400 0;
#X restore 32 142 pd feature_printer;
#N canvas 1004 323 626 418 mock-meta 0;
#X obj 64 139 hsl 100 12 0 1 0 0 empty empty Mean -2 -10 0 12 #fcfcfc #000000 #000000 0 1;
#X obj 65 174 hsl 100 12 1 1000 0 0 empty empty Jitter -2 -10 0 12 #fcfcfc #000000 #000000 0 1;
#X floatatom 198 98 5 0 0 0 - - - 0;
#X obj 261 11 inlet;
#X floatatom 369 175 5 0 0 0 - - - 0;
#X obj 198 239 +;
#X floatatom 124 274 5 0 0 0 - - - 0;
#X obj 274 185 / 1000;
#X obj 274 232 *;
#X floatatom 228 197 5 0 0 0 - - - 0;
#X floatatom 222 167 5 0 0 0 - - - 0;
#X obj 274 95 random 2000;
#X floatatom 274 256 5 0 0 0 - - - 0;
#X floatatom 350 62 5 0 0 0 - - - 0;
#X obj 274 159 -;
#X obj 308 130 / 2;
#X obj 64 215 hsl 100 12 0 1 0 0 empty empty Variance -2 -10 0 12 #fcfcfc #000000 #000000 0 1;
#X obj 198 263 clip 0 1;
#X obj 198 287 outlet;
#X text 54 69 Clock;
#X text 69 92 Mock Tension;
#X msg 36 33 0.5;
#X msg 86 33 300;
#X msg 137 32 0.2;
#X obj 67 4 loadbang;
#X connect 0 0 2 0;
#X connect 1 0 13 0;
#X connect 2 0 5 0;
#X connect 3 0 11 0;
#X connect 3 0 2 0;
#X connect 4 0 8 1;
#X connect 5 0 6 0;
#X connect 5 0 17 0;
#X connect 7 0 8 0;
#X connect 7 0 9 0;
#X connect 8 0 5 1;
#X connect 8 0 12 0;
#X connect 11 0 14 0;
#X connect 13 0 11 1;
#X connect 13 0 15 0;
#X connect 14 0 7 0;
#X connect 14 0 10 0;
#X connect 15 0 14 1;
#X connect 16 0 4 0;
#X connect 17 0 18 0;
#X connect 21 0 0 0;
#X connect 22 0 1 0;
#X connect 24 0 21 0;
#X connect 24 0 22 0;
#X connect 24 0 23 0;
#X coords 0 -1 1 1 120 180 2 50 60;
#X restore 387 516 pd mock-meta;
#N canvas 1004 323 626 418 mock-meta 0;
#X obj 64 139 hsl 100 12 0 1 0 0 empty empty Mean -2 -10 0 12 #fcfcfc #000000 #000000 0 1;
#X obj 65 174 hsl 100 12 1 1000 0 0 empty empty Jitter -2 -10 0 12 #fcfcfc #000000 #000000 0 1;
#X floatatom 198 98 5 0 0 0 - - - 0;
#X obj 261 11 inlet;
#X floatatom 369 175 5 0 0 0 - - - 0;
#X obj 198 239 +;
#X floatatom 124 274 5 0 0 0 - - - 0;
#X obj 274 185 / 1000;
#X obj 274 232 *;
#X floatatom 228 197 5 0 0 0 - - - 0;
#X floatatom 222 167 5 0 0 0 - - - 0;
#X obj 274 95 random 2000;
#X floatatom 274 256 5 0 0 0 - - - 0;
#X floatatom 350 62 5 0 0 0 - - - 0;
#X obj 274 159 -;
#X obj 308 130 / 2;
#X obj 64 215 hsl 100 12 0 1 0 0 empty empty Variance -2 -10 0 12 #fcfcfc #000000 #000000 0 1;
#X obj 198 263 clip 0 1;
#X obj 198 287 outlet;
#X text 54 69 Clock;
#X msg 36 33 0.5;
#X msg 86 33 300;
#X msg 137 32 0.2;
#X obj 67 4 loadbang;
#X text 61 94 Mock Stability;
#X connect 0 0 2 0;
#X connect 1 0 13 0;
#X connect 2 0 5 0;
#X connect 3 0 11 0;
#X connect 3 0 2 0;
#X connect 4 0 8 1;
#X connect 5 0 6 0;
#X connect 5 0 17 0;
#X connect 7 0 8 0;
#X connect 7 0 9 0;
#X connect 8 0 5 1;
#X connect 8 0 12 0;
#X connect 11 0 14 0;
#X connect 13 0 11 1;
#X connect 13 0 15 0;
#X connect 14 0 7 0;
#X connect 14 0 10 0;
#X connect 15 0 14 1;
#X connect 16 0 4 0;
#X connect 17 0 18 0;
#X connect 20 0 0 0;
#X connect 21 0 1 0;
#X connect 22 0 16 0;
#X connect 23 0 20 0;
#X connect 23 0 21 0;
#X connect 23 0 22 0;
#X coords 0 -1 1 1 120 180 2 50 60;
#X restore 557 512 pd mock-meta;
#N canvas 1004 323 626 418 mock-meta 0;
#X obj 64 139 hsl 100 12 0 1 0 0 empty empty Mean -2 -10 0 12 #fcfcfc #000000 #000000 0 1;
#X obj 65 174 hsl 100 12 1 1000 0 0 empty empty Jitter -2 -10 0 12 #fcfcfc #000000 #000000 0 1;
#X floatatom 198 98 5 0 0 0 - - - 0;
#X obj 261 11 inlet;
#X floatatom 369 175 5 0 0 0 - - - 0;
#X obj 198 239 +;
#X floatatom 124 274 5 0 0 0 - - - 0;
#X obj 274 185 / 1000;
#X obj 274 232 *;
#X floatatom 228 197 5 0 0 0 - - - 0;
#X floatatom 222 167 5 0 0 0 - - - 0;
#X obj 274 95 random 2000;
#X floatatom 274 256 5 0 0 0 - - - 0;
#X floatatom 350 62 5 0 0 0 - - - 0;
#X obj 274 159 -;
#X obj 308 130 / 2;
#X obj 64 215 hsl 100 12 0 1 0 0 empty empty Variance -2 -10 0 12 #fcfcfc #000000 #000000 0 1;
#X obj 198 263 clip 0 1;
#X obj 198 287 outlet;
#X text 54 69 Clock;
#X msg 36 33 0.5;
#X msg 86 33 300;
#X msg 137 32 0.2;
#X obj 67 4 loadbang;
#X text 56 94 Mock Excitement;
#X connect 0 0 2 0;
#X connect 1 0 13 0;
#X connect 2 0 5 0;
#X connect 3 0 11 0;
#X connect 3 0 2 0;
#X connect 4 0 8 1;
#X connect 5 0 6 0;
#X connect 5 0 17 0;
#X connect 7 0 8 0;
#X connect 7 0 9 0;
#X connect 8 0 5 1;
#X connect 8 0 12 0;
#X connect 11 0 14 0;
#X connect 13 0 11 1;
#X connect 13 0 15 0;
#X connect 14 0 7 0;
#X connect 14 0 10 0;
#X connect 15 0 14 1;
#X connect 16 0 4 0;
#X connect 17 0 18 0;
#X connect 20 0 0 0;
#X connect 21 0 1 0;
#X connect 22 0 16 0;
#X connect 23 0 20 0;
#X connect 23 0 21 0;
#X connect 23 0 22 0;
#X coords 0 -1 1 1 120 180 2 50 60;
#X restore 721 511 pd mock-meta;
#N canvas 1004 323 626 418 mock-meta 0;
#X obj 64 139 hsl 100 12 0 1 0 0 empty empty Mean -2 -10 0 12 #fcfcfc #000000 #000000 0 1;
#X obj 65 174 hsl 100 12 1 1000 0 0 empty empty Jitter -2 -10 0 12 #fcfcfc #000000 #000000 0 1;
#X floatatom 198 98 5 0 0 0 - - - 0;
#X obj 261 11 inlet;
#X floatatom 369 175 5 0 0 0 - - - 0;
#X obj 198 239 +;
#X floatatom 124 274 5 0 0 0 - - - 0;
#X obj 274 185 / 1000;
#X obj 274 232 *;
#X floatatom 228 197 5 0 0 0 - - - 0;
#X floatatom 222 167 5 0 0 0 - - - 0;
#X obj 274 95 random 2000;
#X floatatom 274 256 5 0 0 0 - - - 0;
#X floatatom 350 62 5 0 0 0 - - - 0;
#X obj 274 159 -;
#X obj 308 130 / 2;
#X obj 64 215 hsl 100 12 0 1 0 0 empty empty Variance -2 -10 0 12 #fcfcfc #000000 #000000 0 1;
#X obj 198 263 clip 0 1;
#X obj 198 287 outlet;
#X text 54 69 Clock;
#X msg 36 33 0.5;
#X msg 86 33 300;
#X msg 137 32 0.2;
#X obj 67 4 loadbang;
#X text 69 92 Mock Pulse;
#X connect 0 0 2 0;
#X connect 1 0 13 0;
#X connect 2 0 5 0;
#X connect 3 0 11 0;
#X connect 3 0 2 0;
#X connect 4 0 8 1;
#X connect 5 0 6 0;
#X connect 5 0 17 0;
#X connect 7 0 8 0;
#X connect 7 0 9 0;
#X connect 8 0 5 1;
#X connect 8 0 12 0;
#X connect 11 0 14 0;
#X connect 13 0 11 1;
#X connect 13 0 15 0;
#X connect 14 0 7 0;
#X connect 14 0 10 0;
#X connect 15 0 14 1;
#X connect 16 0 4 0;
#X connect 17 0 18 0;
#X connect 20 0 0 0;
#X connect 21 0 1 0;
#X connect 22 0 16 0;
#X connect 23 0 20 0;
#X connect 23 0 21 0;
#X connect 23 0 22 0;
#X coords 0 -1 1 1 120 180 2 50 60;
#X restore 877 512 pd mock-meta;
#X obj 386 429 metro 1000;
#N canvas 238 84 1723 1029 mock-velocity-pattern 0;
#X obj 1343 412 until;
#X msg 1343 383 16;
#X obj 100 31 inlet;
#X listbox 115 301 32 0 0 2 - - - 0;
#X obj 1343 443 random 1000;
#X obj 1344 551 <;
#X text 107 104 Clock;
#X text 155 124 Mock Velocity Pattern;
#X obj 1400 328 bng 19 250 50 0 empty empty empty 0 -10 0 12 #fcfcfc #000000 #000000;
#X listbox 91 631 41 0 0 2 Positional\ Bias - - 0;
#X obj 113 228 bng 19 250 50 0 empty empty Update\ Pos.\ Bias 30 10 0 12 #fcfcfc #000000 #000000;
#X obj 89 517 until;
#X msg 89 488 16;
#X obj 89 587 list store;
#X msg 37 458 delete 0 -1;
#X obj 1080 323 f;
#X obj 1111 326 + 1;
#X obj 89 554 random 500;
#X obj 117 274 hsl 220 12 0 1000 0 0 empty empty Max\ Wiggle -2 -10 0 12 #fcfcfc #000000 #000000 0 1;
#X obj 749 124 until;
#X msg 749 95 16;
#X obj 749 229 list store;
#X obj 749 155 random 1000;
#X obj 749 189 <;
#X msg 640 92 delete 0 -1;
#X obj 114 155 bng 19 250 50 0 empty empty New\ Pattern 30 10 0 12 #fcfcfc #000000 #000000;
#X obj 117 207 hsl 220 12 0 1000 0 0 empty empty Density -2 -10 0 12 #fcfcfc #000000 #000000 0 1;
#X text 878 143 New Pattern;
#X text 1514 504 Update Pattern;
#X text 287 524 Positional Bias;
#X listbox 749 253 34 0 0 0 - - - 0;
#X obj 749 276 array set mock_vel_pattern;
#X obj 206 398 array get mock_vel_pattern;
#X obj 1061 46 array define mock_vel_pattern 16;
#X obj 1062 93 array define mock_vp_positional_bias 16;
#X obj 91 670 array set mock_vp_positional_bias;
#X obj 158 30 inlet;
#X obj 209 29 inlet;
#X obj 1080 351 mod 16;
#X obj 223 355 bng 19 250 50 0 empty empty empty 0 -10 0 12 #fcfcfc #000000 #000000;
#X obj 1106 443 unpack f;
#X obj 825 410 array get mock_vp_positional_bias 0 1;
#X obj 825 443 unpack f;
#X obj 1264 351 bng 19 250 50 0 empty empty empty 0 -10 0 12 #fcfcfc #000000 #000000;
#X obj 588 26 bng 19 250 50 0 empty empty empty 0 -10 0 12 #fcfcfc #000000 #000000;
#X obj 49 290 bng 19 250 50 0 empty empty empty 0 -10 0 12 #fcfcfc #000000 #000000;
#X obj 1104 411 array get mock_vel_pattern 0 1;
#X floatatom 1069 547 5 0 0 0 - - - 0;
#X floatatom 1144 545 5 0 0 0 - - - 0;
#X obj 1714 1015;
#X obj 1341 647 array set mock_vel_pattern;
#X floatatom 1300 472 5 0 0 0 - - - 0;
#X floatatom 1284 569 5 0 0 0 - - - 0;
#N canvas 693 298 587 437 xor 0;
#X obj 119 60 inlet;
#X obj 243 62 inlet;
#X obj 243 164 &&;
#X obj 266 105 != 1;
#X obj 267 133 t b f;
#X obj 127 166 &&;
#X obj 150 107 != 1;
#X obj 151 135 t b f;
#X obj 243 188 t b f;
#X obj 188 246 ||;
#X obj 188 270 outlet;
#X connect 0 0 3 0;
#X connect 0 0 5 0;
#X connect 1 0 2 0;
#X connect 1 0 6 0;
#X connect 2 0 8 0;
#X connect 3 0 4 0;
#X connect 4 0 2 0;
#X connect 4 1 2 1;
#X connect 5 0 9 0;
#X connect 6 0 7 0;
#X connect 7 0 5 0;
#X connect 7 1 5 1;
#X connect 8 0 9 0;
#X connect 8 1 9 1;
#X connect 9 0 10 0;
#X restore 1343 594 pd xor;
#X obj 1368 507 t b f;
#X obj 728 682 delay 5;
#X obj 762 631 array set mock_vel_pattern_temp;
#X obj 767 729 array get mock_vel_pattern_temp;
#X listbox 767 753 42 0 0 0 - - - 0;
#X obj 725 527 bng 19 250 50 0 empty empty empty 0 -10 0 12 #fcfcfc #000000 #000000;
#X obj 820 688 bng 19 250 50 0 empty empty empty 0 -10 0 12 #fcfcfc #000000 #000000;
#X msg 782 536 0 0 0 0;
#X listbox 782 560 20 0 0 0 - - - 0;
#X obj 1062 69 array define mock_vel_pattern_temp 4;
#X obj 651 557 f;
#X obj 682 560 + 1;
#X floatatom 588 605 5 0 0 0 - - - 0;
#X obj 651 585 mod 4;
#X obj 723 584 random 2;
#X floatatom 734 607 5 0 0 0 - - - 0;
#X floatatom 1001 333 5 0 0 0 - - - 0;
#X obj 1424 620 + 1;
#X listbox 478 475 34 0 0 0 - - - 0;
#X msg 477 413 4;
#X obj 478 451 array get mock_vel_pattern 0 1;
#X floatatom 524 411 5 0 0 0 - - - 0;
#X msg 1164 369 8;
#X floatatom 882 855 5 0 0 0 - - - 0;
#X obj 887 895 list store;
#X listbox 887 919 29 0 0 0 - - - 0;
#X msg 771 869 delete 0 -1;
#X obj 945 868 bng 19 250 50 0 empty empty empty 0 -10 0 12 #fcfcfc #000000 #000000;
#X obj 452 353 delay 100;
#X connect 0 0 4 0;
#X connect 0 0 15 0;
#X connect 1 0 0 0;
#X connect 2 0 1 0;
#X connect 2 0 32 0;
#X connect 4 0 51 0;
#X connect 4 0 5 0;
#X connect 5 0 52 0;
#X connect 5 0 53 0;
#X connect 8 0 1 0;
#X connect 8 0 82 0;
#X connect 9 0 13 1;
#X connect 9 0 35 0;
#X connect 10 0 14 0;
#X connect 10 0 12 0;
#X connect 11 0 17 0;
#X connect 12 0 11 0;
#X connect 13 0 9 0;
#X connect 14 0 13 0;
#X connect 15 0 16 0;
#X connect 15 0 38 0;
#X connect 16 0 15 1;
#X connect 17 0 13 0;
#X connect 18 0 17 1;
#X connect 18 0 45 0;
#X connect 19 0 22 0;
#X connect 20 0 19 0;
#X connect 21 0 30 0;
#X connect 22 0 23 0;
#X connect 23 0 21 0;
#X connect 24 0 21 0;
#X connect 25 0 24 0;
#X connect 25 0 20 0;
#X connect 25 0 32 0;
#X connect 26 0 23 1;
#X connect 26 0 44 0;
#X connect 30 0 21 1;
#X connect 30 0 31 0;
#X connect 32 0 3 0;
#X connect 36 0 25 0;
#X connect 37 0 10 0;
#X connect 38 0 46 0;
#X connect 38 0 70 0;
#X connect 38 0 41 0;
#X connect 38 0 71 0;
#X connect 39 0 32 0;
#X connect 40 0 48 0;
#X connect 40 0 53 1;
#X connect 41 0 42 0;
#X connect 42 0 47 0;
#X connect 42 0 54 0;
#X connect 43 0 4 0;
#X connect 43 0 15 0;
#X connect 43 0 82 0;
#X connect 44 0 24 0;
#X connect 44 0 20 0;
#X connect 44 0 32 0;
#X connect 45 0 14 0;
#X connect 45 0 12 0;
#X connect 46 0 40 0;
#X connect 53 0 50 0;
#X connect 54 0 5 0;
#X connect 54 1 5 1;
#X connect 55 0 57 0;
#X connect 57 0 58 0;
#X connect 59 0 64 0;
#X connect 59 0 55 0;
#X connect 59 0 68 0;
#X connect 60 0 57 0;
#X connect 61 0 62 0;
#X connect 62 0 56 0;
#X connect 64 0 65 0;
#X connect 64 0 67 0;
#X connect 65 0 64 1;
#X connect 67 0 66 0;
#X connect 67 0 56 1;
#X connect 68 0 69 0;
#X connect 69 0 56 0;
#X connect 71 0 50 1;
#X connect 73 0 74 0;
#X connect 74 0 72 0;
#X connect 75 0 74 0;
#X connect 76 0 46 0;
#X connect 77 0 78 0;
#X connect 78 0 79 0;
#X connect 79 0 78 1;
#X connect 80 0 78 0;
#X connect 81 0 78 0;
#X connect 82 0 32 0;
#X coords 0 -1 1 1 260 240 2 100 100;
#X restore 1137 504 pd mock-velocity-pattern;
#X obj 385 404 tgl 19 0 empty empty empty 0 -10 0 12 #fcfcfc #000000 #000000 0 1;
#X floatatom 387 701 5 0 0 0 - - - 0;
#X floatatom 557 697 5 0 0 0 - - - 0;
#X floatatom 721 696 5 0 0 0 - - - 0;
#X floatatom 877 697 5 0 0 0 - - - 0;
#X connect 6 0 13 0;
#X connect 7 0 14 0;
#X connect 8 0 15 0;
#X connect 9 0 16 0;
#X connect 10 0 6 0;
#X connect 10 0 7 0;
#X connect 10 0 8 0;
#X connect 10 0 9 0;
#X connect 10 0 11 0;
#X connect 12 0 10 0;
#X coords 0 1237 1 1236 85 60 0;
