#N canvas 1461 78 602 544 12;
#X obj 75 215 list store;
#X listbox 195 72 29 0 0 0 - - - 0;
#X obj 229 106 list length;
#X floatatom 230 132 5 0 0 0 - - - 0;
#X obj 230 184 select 1;
#X obj 339 185 - 1;
#X msg 43 75 delete \$1 -1;
#X obj 194 221 outlet;
#X obj 75 136 inlet;
#X floatatom 338 157 5 0 0 0 - - - 0;
#X obj 230 157 >=;
#X obj 410 98 inlet;
#X msg 324 120 set 5;
#X obj 324 98 loadbang;
#X msg 410 126 set \$1;
#X connect 0 0 1 0;
#X connect 1 0 0 1;
#X connect 1 0 2 0;
#X connect 1 0 7 0;
#X connect 2 0 3 0;
#X connect 3 0 10 0;
#X connect 4 0 9 0;
#X connect 5 0 6 0;
#X connect 6 0 0 0;
#X connect 8 0 0 0;
#X connect 9 0 5 0;
#X connect 9 0 10 1;
#X connect 10 0 4 0;
#X connect 11 0 14 0;
#X connect 12 0 9 0;
#X connect 13 0 12 0;
#X connect 14 0 9 0;
